<svg xmlns="http://www.w3.org/2000/svg" xmlns:xlink="http://www.w3.org/1999/xlink" width="512" zoomAndPan="magnify" viewBox="0 0 150 112.499997" height="512" preserveAspectRatio="xMidYMid meet" version="1.2"><defs><clipPath id="804f5eed2d"><path d="M 19.273438 2.351562 L 127 2.351562 L 127 108.550781 L 19.273438 108.550781 Z M 19.273438 2.351562 "/></clipPath><clipPath id="e19e68c388"><path d="M 24.523438 2.351562 L 121.558594 2.351562 C 124.457031 2.351562 126.808594 4.703125 126.808594 7.601562 L 126.808594 103.300781 C 126.808594 106.199219 124.457031 108.550781 121.558594 108.550781 L 24.523438 108.550781 C 21.621094 108.550781 19.273438 106.199219 19.273438 103.300781 L 19.273438 7.601562 C 19.273438 4.703125 21.621094 2.351562 24.523438 2.351562 Z M 24.523438 2.351562 "/></clipPath></defs><g id="c55a663a20"><g clip-rule="nonzero" clip-path="url(#804f5eed2d)"><g clip-rule="nonzero" clip-path="url(#e19e68c388)"><path style=" stroke:none;fill-rule:nonzero;fill:#172032;fill-opacity:1;" d="M 19.273438 2.351562 L 126.714844 2.351562 L 126.714844 108.550781 L 19.273438 108.550781 Z M 19.273438 2.351562 "/></g></g><g style="fill:#ffffff;fill-opacity:0.4;"><g transform="translate(30.835331, 37.715928)"><path style="stroke:none" d="M 0.90625 -1.75 C 1.3125 -1.863281 1.878906 -1.972656 2.609375 -2.078125 C 3.347656 -2.191406 3.785156 -2.25 3.921875 -2.25 C 4.429688 -2.269531 4.769531 -2.359375 4.9375 -2.515625 C 5.019531 -2.828125 5.0625 -3.085938 5.0625 -3.296875 L 5.015625 -5.796875 L 5.140625 -8.34375 L 5.140625 -9.96875 L 5.15625 -11.890625 L 5.109375 -13.9375 L 5.1875 -18.3125 L 5.21875 -20.28125 L 5.21875 -20.5625 C 5.125 -21.9375 5.035156 -22.691406 4.953125 -22.828125 C 4.867188 -22.960938 4.492188 -23.132812 3.828125 -23.34375 C 3.753906 -23.363281 3.503906 -23.460938 3.078125 -23.640625 C 2.753906 -23.765625 2.457031 -23.851562 2.1875 -23.90625 C 1.738281 -24.03125 1.421875 -24.171875 1.234375 -24.328125 C 1.210938 -24.660156 1.203125 -24.921875 1.203125 -25.109375 C 1.203125 -25.210938 1.207031 -25.367188 1.21875 -25.578125 C 1.332031 -25.640625 1.457031 -25.671875 1.59375 -25.671875 C 1.90625 -25.671875 3.039062 -25.617188 5 -25.515625 L 7.796875 -25.53125 L 9.875 -25.5 C 10.78125 -25.5 11.9375 -25.554688 13.34375 -25.671875 C 13.757812 -25.710938 14.003906 -25.734375 14.078125 -25.734375 C 14.265625 -25.734375 14.398438 -25.679688 14.484375 -25.578125 C 14.585938 -25.429688 14.640625 -25.171875 14.640625 -24.796875 C 14.640625 -24.492188 14.566406 -24.265625 14.421875 -24.109375 C 14.347656 -24.015625 14.0625 -23.9375 13.5625 -23.875 L 11.125 -23.296875 C 11.0625 -23.273438 10.953125 -23.222656 10.796875 -23.140625 C 10.742188 -23.054688 10.707031 -22.976562 10.6875 -22.90625 L 10.65625 -22.359375 L 10.609375 -21.125 L 10.609375 -20.78125 L 10.625 -20.5625 C 10.625 -20.5 10.601562 -20.140625 10.5625 -19.484375 C 10.550781 -19.316406 10.546875 -19.144531 10.546875 -18.96875 C 10.546875 -18.757812 10.554688 -18.410156 10.578125 -17.921875 C 10.617188 -17.128906 10.640625 -16.441406 10.640625 -15.859375 C 10.640625 -15.179688 10.617188 -14.40625 10.578125 -13.53125 C 10.566406 -13.195312 10.5625 -12.769531 10.5625 -12.25 L 10.484375 -2.953125 C 10.484375 -2.566406 10.550781 -2.3125 10.6875 -2.1875 L 12.546875 -2.109375 L 13.703125 -2.140625 L 14.9375 -2.09375 C 17.039062 -2.09375 18.691406 -2.335938 19.890625 -2.828125 C 20.796875 -3.191406 21.382812 -3.554688 21.65625 -3.921875 C 22.101562 -4.316406 22.46875 -4.738281 22.75 -5.1875 C 23.03125 -5.644531 23.347656 -6.40625 23.703125 -7.46875 L 24.328125 -7.46875 C 24.640625 -7.46875 24.988281 -7.441406 25.375 -7.390625 L 25.375 -6.84375 C 25.375 -5.894531 25.257812 -4.25 25.03125 -1.90625 C 24.9375 -0.957031 24.84375 -0.378906 24.75 -0.171875 C 24.445312 -0.117188 24.257812 -0.09375 24.1875 -0.09375 L 23.46875 -0.09375 L 22.4375 -0.078125 C 22.320312 -0.078125 21.546875 -0.128906 20.109375 -0.234375 C 19.847656 -0.242188 18.597656 -0.285156 16.359375 -0.359375 C 14.128906 -0.441406 11.941406 -0.484375 9.796875 -0.484375 L 5.796875 -0.375 C 4.253906 -0.332031 2.8125 -0.257812 1.46875 -0.15625 L 1.171875 -0.15625 C 1.097656 -0.15625 0.972656 -0.160156 0.796875 -0.171875 C 0.773438 -0.316406 0.765625 -0.441406 0.765625 -0.546875 C 0.765625 -1.097656 0.8125 -1.5 0.90625 -1.75 Z M 0.90625 -1.75 "/></g></g><g style="fill:#ffffff;fill-opacity:0.4;"><g transform="translate(55.678939, 37.715928)"><path style="stroke:none" d="M 3.375 -23.5 C 3.375 -24.207031 3.601562 -24.785156 4.0625 -25.234375 C 4.519531 -25.679688 5.109375 -25.90625 5.828125 -25.90625 C 6.597656 -25.90625 7.234375 -25.664062 7.734375 -25.1875 C 8.242188 -24.71875 8.5 -24.179688 8.5 -23.578125 C 8.5 -23.128906 8.398438 -22.679688 8.203125 -22.234375 C 8.003906 -21.796875 7.679688 -21.441406 7.234375 -21.171875 C 6.796875 -20.910156 6.351562 -20.78125 5.90625 -20.78125 C 5.269531 -20.78125 4.6875 -21.046875 4.15625 -21.578125 C 3.632812 -22.117188 3.375 -22.757812 3.375 -23.5 Z M 0.625 -0.125 L 0.59375 -1.390625 L 2.796875 -1.6875 C 3.128906 -1.78125 3.359375 -1.914062 3.484375 -2.09375 C 3.609375 -2.269531 3.671875 -2.660156 3.671875 -3.265625 L 3.671875 -3.484375 C 3.671875 -3.640625 3.675781 -3.921875 3.6875 -4.328125 C 3.707031 -4.742188 3.71875 -5.109375 3.71875 -5.421875 C 3.71875 -5.671875 3.703125 -6.148438 3.671875 -6.859375 L 3.6875 -7.84375 L 3.671875 -8.765625 L 3.703125 -11.953125 C 3.703125 -12.359375 3.664062 -12.773438 3.59375 -13.203125 C 3.445312 -13.398438 3.179688 -13.570312 2.796875 -13.71875 C 2.421875 -13.863281 1.765625 -13.96875 0.828125 -14.03125 L 0.828125 -15.125 C 2.171875 -15.207031 3.351562 -15.488281 4.375 -15.96875 C 5.0625 -16.28125 5.8125 -16.835938 6.625 -17.640625 L 7.9375 -17.640625 C 7.988281 -16.015625 8.015625 -13.910156 8.015625 -11.328125 L 7.875 -3.328125 C 7.875 -2.785156 7.898438 -2.289062 7.953125 -1.84375 C 8.359375 -1.695312 9.019531 -1.550781 9.9375 -1.40625 C 10.289062 -1.351562 10.570312 -1.289062 10.78125 -1.21875 L 10.765625 -0.140625 C 10.410156 -0.128906 10.144531 -0.125 9.96875 -0.125 C 9.78125 -0.125 9.484375 -0.132812 9.078125 -0.15625 C 7.742188 -0.21875 5.957031 -0.25 3.71875 -0.25 C 3.082031 -0.25 2.460938 -0.226562 1.859375 -0.1875 C 1.253906 -0.144531 0.84375 -0.125 0.625 -0.125 Z M 0.625 -0.125 "/></g></g><g style="fill:#ffffff;fill-opacity:0.4;"><g transform="translate(66.320109, 37.715928)"><path style="stroke:none" d="M 1.078125 -0.09375 L 1.0625 -1.21875 C 1.269531 -1.320312 1.734375 -1.472656 2.453125 -1.671875 C 3.179688 -1.878906 3.585938 -2.023438 3.671875 -2.109375 C 3.804688 -2.253906 3.875 -2.457031 3.875 -2.71875 L 3.875 -3.15625 C 3.925781 -4.375 3.953125 -5.050781 3.953125 -5.1875 C 3.953125 -5.3125 3.945312 -5.476562 3.9375 -5.6875 L 3.921875 -5.921875 L 3.9375 -6.171875 L 3.9375 -6.34375 L 3.828125 -9.71875 L 3.796875 -13.484375 L 3.765625 -13.859375 C 3.523438 -13.859375 3.175781 -13.867188 2.71875 -13.890625 L 1.484375 -13.890625 C 1.410156 -13.910156 1.300781 -13.9375 1.15625 -13.96875 C 1.144531 -14.320312 1.140625 -14.601562 1.140625 -14.8125 C 1.140625 -15.175781 1.226562 -15.472656 1.40625 -15.703125 C 1.800781 -15.703125 2.570312 -15.75 3.71875 -15.84375 C 3.757812 -17.394531 4.007812 -18.851562 4.46875 -20.21875 C 4.9375 -21.582031 5.523438 -22.675781 6.234375 -23.5 L 6.75 -24.0625 C 7.601562 -24.800781 8.394531 -25.316406 9.125 -25.609375 C 9.851562 -25.898438 10.710938 -26.046875 11.703125 -26.046875 C 12.671875 -26.046875 13.46875 -25.890625 14.09375 -25.578125 C 14.726562 -25.265625 15.164062 -24.863281 15.40625 -24.375 C 15.65625 -23.882812 15.78125 -23.429688 15.78125 -23.015625 C 15.78125 -22.484375 15.5625 -22 15.125 -21.5625 C 14.695312 -21.125 14.222656 -20.90625 13.703125 -20.90625 C 13.304688 -20.90625 12.921875 -21.039062 12.546875 -21.3125 C 12.285156 -21.5 11.96875 -21.90625 11.59375 -22.53125 C 11.21875 -23.15625 10.925781 -23.550781 10.71875 -23.71875 C 10.507812 -23.875 10.234375 -23.953125 9.890625 -23.953125 C 9.492188 -23.953125 9.144531 -23.796875 8.84375 -23.484375 C 8.539062 -23.171875 8.328125 -22.71875 8.203125 -22.125 C 8.085938 -21.539062 8.03125 -20.363281 8.03125 -18.59375 L 8.015625 -16.4375 L 8.03125 -15.875 L 8.40625 -15.859375 L 10.734375 -15.921875 C 10.859375 -15.921875 11.046875 -15.898438 11.296875 -15.859375 C 11.460938 -15.703125 11.546875 -15.570312 11.546875 -15.46875 L 11.53125 -15.09375 L 11.53125 -14.5625 C 11.53125 -14.476562 11.507812 -14.328125 11.46875 -14.109375 C 11.351562 -14.046875 11.210938 -14.015625 11.046875 -14.015625 L 10.875 -14.015625 L 9.390625 -14 C 9.140625 -14 8.945312 -14.003906 8.8125 -14.015625 L 8.640625 -14.015625 C 8.515625 -14.015625 8.320312 -13.988281 8.0625 -13.9375 L 8.03125 -12.96875 C 8.03125 -12.882812 8.039062 -12.742188 8.0625 -12.546875 C 8.082031 -11.796875 8.09375 -11.285156 8.09375 -11.015625 L 8.078125 -8.140625 L 8.109375 -6.03125 L 8.09375 -4.34375 C 8.050781 -3.15625 8.160156 -2.4375 8.421875 -2.1875 C 8.804688 -1.8125 9.597656 -1.5625 10.796875 -1.4375 C 11.015625 -1.414062 11.21875 -1.367188 11.40625 -1.296875 C 11.457031 -0.984375 11.484375 -0.78125 11.484375 -0.6875 C 11.484375 -0.539062 11.457031 -0.335938 11.40625 -0.078125 L 10 -0.078125 C 9.875 -0.078125 9.109375 -0.125 7.703125 -0.21875 L 6.640625 -0.296875 C 5.617188 -0.296875 4.828125 -0.269531 4.265625 -0.21875 C 3.972656 -0.175781 2.910156 -0.132812 1.078125 -0.09375 Z M 1.078125 -0.09375 "/></g></g><g style="fill:#ffffff;fill-opacity:0.4;"><g transform="translate(77.80363, 37.715928)"><path style="stroke:none" d="M 1.6875 -10.5 C 2.019531 -11.613281 2.320312 -12.351562 2.59375 -12.71875 C 3.320312 -13.789062 4.097656 -14.625 4.921875 -15.21875 C 5.753906 -15.820312 6.503906 -16.222656 7.171875 -16.421875 C 8.035156 -16.671875 8.734375 -16.796875 9.265625 -16.796875 C 10.492188 -16.796875 11.488281 -16.703125 12.25 -16.515625 C 13.007812 -16.328125 13.644531 -16.054688 14.15625 -15.703125 C 14.882812 -15.191406 15.46875 -14.671875 15.90625 -14.140625 C 16.351562 -13.617188 16.71875 -13.003906 17 -12.296875 C 17.28125 -11.597656 17.4375 -10.742188 17.46875 -9.734375 L 15.28125 -9.78125 C 14.6875 -9.78125 13.367188 -9.835938 11.328125 -9.953125 C 10.566406 -10.003906 10.046875 -10.03125 9.765625 -10.03125 C 9.671875 -10.03125 8.960938 -10.023438 7.640625 -10.015625 L 5.953125 -10.015625 C 5.929688 -9.828125 5.921875 -9.671875 5.921875 -9.546875 C 5.921875 -8.847656 6.003906 -8.117188 6.171875 -7.359375 C 6.335938 -6.597656 6.59375 -5.925781 6.9375 -5.34375 C 7.28125 -4.757812 7.703125 -4.257812 8.203125 -3.84375 C 8.703125 -3.425781 9.222656 -3.125 9.765625 -2.9375 L 10.890625 -2.5625 C 11.898438 -2.5625 12.578125 -2.597656 12.921875 -2.671875 C 13.546875 -2.796875 14.09375 -2.957031 14.5625 -3.15625 C 15.039062 -3.363281 15.625 -3.707031 16.3125 -4.1875 C 16.78125 -3.851562 17.171875 -3.546875 17.484375 -3.265625 C 16.335938 -2.003906 15.144531 -1.085938 13.90625 -0.515625 C 12.664062 0.046875 11.285156 0.328125 9.765625 0.328125 C 8.734375 0.328125 7.890625 0.238281 7.234375 0.0625 C 6.359375 -0.175781 5.566406 -0.535156 4.859375 -1.015625 C 4.148438 -1.503906 3.539062 -2.109375 3.03125 -2.828125 C 2.53125 -3.546875 2.15625 -4.28125 1.90625 -5.03125 C 1.570312 -6.03125 1.40625 -6.828125 1.40625 -7.421875 C 1.40625 -8.566406 1.5 -9.59375 1.6875 -10.5 Z M 13.078125 -11.34375 C 13.054688 -12.082031 12.910156 -12.78125 12.640625 -13.4375 C 12.367188 -14.101562 11.941406 -14.625 11.359375 -15 C 10.785156 -15.375 10.207031 -15.5625 9.625 -15.5625 C 8.75 -15.5625 7.957031 -15.175781 7.25 -14.40625 C 6.539062 -13.632812 6.144531 -12.585938 6.0625 -11.265625 L 10.53125 -11.25 C 10.8125 -11.25 11.210938 -11.269531 11.734375 -11.3125 C 12.117188 -11.351562 12.390625 -11.375 12.546875 -11.375 C 12.660156 -11.375 12.835938 -11.363281 13.078125 -11.34375 Z M 13.078125 -11.34375 "/></g></g><g style="fill:#ffffff;fill-opacity:1;"><g transform="translate(29.060783, 35.941381)"><path style="stroke:none" d="M 0.90625 -1.75 C 1.3125 -1.863281 1.878906 -1.972656 2.609375 -2.078125 C 3.347656 -2.191406 3.785156 -2.25 3.921875 -2.25 C 4.429688 -2.269531 4.769531 -2.359375 4.9375 -2.515625 C 5.019531 -2.828125 5.0625 -3.085938 5.0625 -3.296875 L 5.015625 -5.796875 L 5.140625 -8.34375 L 5.140625 -9.96875 L 5.15625 -11.890625 L 5.109375 -13.9375 L 5.1875 -18.3125 L 5.21875 -20.28125 L 5.21875 -20.5625 C 5.125 -21.9375 5.035156 -22.691406 4.953125 -22.828125 C 4.867188 -22.960938 4.492188 -23.132812 3.828125 -23.34375 C 3.753906 -23.363281 3.503906 -23.460938 3.078125 -23.640625 C 2.753906 -23.765625 2.457031 -23.851562 2.1875 -23.90625 C 1.738281 -24.03125 1.421875 -24.171875 1.234375 -24.328125 C 1.210938 -24.660156 1.203125 -24.921875 1.203125 -25.109375 C 1.203125 -25.210938 1.207031 -25.367188 1.21875 -25.578125 C 1.332031 -25.640625 1.457031 -25.671875 1.59375 -25.671875 C 1.90625 -25.671875 3.039062 -25.617188 5 -25.515625 L 7.796875 -25.53125 L 9.875 -25.5 C 10.78125 -25.5 11.9375 -25.554688 13.34375 -25.671875 C 13.757812 -25.710938 14.003906 -25.734375 14.078125 -25.734375 C 14.265625 -25.734375 14.398438 -25.679688 14.484375 -25.578125 C 14.585938 -25.429688 14.640625 -25.171875 14.640625 -24.796875 C 14.640625 -24.492188 14.566406 -24.265625 14.421875 -24.109375 C 14.347656 -24.015625 14.0625 -23.9375 13.5625 -23.875 L 11.125 -23.296875 C 11.0625 -23.273438 10.953125 -23.222656 10.796875 -23.140625 C 10.742188 -23.054688 10.707031 -22.976562 10.6875 -22.90625 L 10.65625 -22.359375 L 10.609375 -21.125 L 10.609375 -20.78125 L 10.625 -20.5625 C 10.625 -20.5 10.601562 -20.140625 10.5625 -19.484375 C 10.550781 -19.316406 10.546875 -19.144531 10.546875 -18.96875 C 10.546875 -18.757812 10.554688 -18.410156 10.578125 -17.921875 C 10.617188 -17.128906 10.640625 -16.441406 10.640625 -15.859375 C 10.640625 -15.179688 10.617188 -14.40625 10.578125 -13.53125 C 10.566406 -13.195312 10.5625 -12.769531 10.5625 -12.25 L 10.484375 -2.953125 C 10.484375 -2.566406 10.550781 -2.3125 10.6875 -2.1875 L 12.546875 -2.109375 L 13.703125 -2.140625 L 14.9375 -2.09375 C 17.039062 -2.09375 18.691406 -2.335938 19.890625 -2.828125 C 20.796875 -3.191406 21.382812 -3.554688 21.65625 -3.921875 C 22.101562 -4.316406 22.46875 -4.738281 22.75 -5.1875 C 23.03125 -5.644531 23.347656 -6.40625 23.703125 -7.46875 L 24.328125 -7.46875 C 24.640625 -7.46875 24.988281 -7.441406 25.375 -7.390625 L 25.375 -6.84375 C 25.375 -5.894531 25.257812 -4.25 25.03125 -1.90625 C 24.9375 -0.957031 24.84375 -0.378906 24.75 -0.171875 C 24.445312 -0.117188 24.257812 -0.09375 24.1875 -0.09375 L 23.46875 -0.09375 L 22.4375 -0.078125 C 22.320312 -0.078125 21.546875 -0.128906 20.109375 -0.234375 C 19.847656 -0.242188 18.597656 -0.285156 16.359375 -0.359375 C 14.128906 -0.441406 11.941406 -0.484375 9.796875 -0.484375 L 5.796875 -0.375 C 4.253906 -0.332031 2.8125 -0.257812 1.46875 -0.15625 L 1.171875 -0.15625 C 1.097656 -0.15625 0.972656 -0.160156 0.796875 -0.171875 C 0.773438 -0.316406 0.765625 -0.441406 0.765625 -0.546875 C 0.765625 -1.097656 0.8125 -1.5 0.90625 -1.75 Z M 0.90625 -1.75 "/></g></g><g style="fill:#ffffff;fill-opacity:1;"><g transform="translate(53.904391, 35.941381)"><path style="stroke:none" d="M 3.375 -23.5 C 3.375 -24.207031 3.601562 -24.785156 4.0625 -25.234375 C 4.519531 -25.679688 5.109375 -25.90625 5.828125 -25.90625 C 6.597656 -25.90625 7.234375 -25.664062 7.734375 -25.1875 C 8.242188 -24.71875 8.5 -24.179688 8.5 -23.578125 C 8.5 -23.128906 8.398438 -22.679688 8.203125 -22.234375 C 8.003906 -21.796875 7.679688 -21.441406 7.234375 -21.171875 C 6.796875 -20.910156 6.351562 -20.78125 5.90625 -20.78125 C 5.269531 -20.78125 4.6875 -21.046875 4.15625 -21.578125 C 3.632812 -22.117188 3.375 -22.757812 3.375 -23.5 Z M 0.625 -0.125 L 0.59375 -1.390625 L 2.796875 -1.6875 C 3.128906 -1.78125 3.359375 -1.914062 3.484375 -2.09375 C 3.609375 -2.269531 3.671875 -2.660156 3.671875 -3.265625 L 3.671875 -3.484375 C 3.671875 -3.640625 3.675781 -3.921875 3.6875 -4.328125 C 3.707031 -4.742188 3.71875 -5.109375 3.71875 -5.421875 C 3.71875 -5.671875 3.703125 -6.148438 3.671875 -6.859375 L 3.6875 -7.84375 L 3.671875 -8.765625 L 3.703125 -11.953125 C 3.703125 -12.359375 3.664062 -12.773438 3.59375 -13.203125 C 3.445312 -13.398438 3.179688 -13.570312 2.796875 -13.71875 C 2.421875 -13.863281 1.765625 -13.96875 0.828125 -14.03125 L 0.828125 -15.125 C 2.171875 -15.207031 3.351562 -15.488281 4.375 -15.96875 C 5.0625 -16.28125 5.8125 -16.835938 6.625 -17.640625 L 7.9375 -17.640625 C 7.988281 -16.015625 8.015625 -13.910156 8.015625 -11.328125 L 7.875 -3.328125 C 7.875 -2.785156 7.898438 -2.289062 7.953125 -1.84375 C 8.359375 -1.695312 9.019531 -1.550781 9.9375 -1.40625 C 10.289062 -1.351562 10.570312 -1.289062 10.78125 -1.21875 L 10.765625 -0.140625 C 10.410156 -0.128906 10.144531 -0.125 9.96875 -0.125 C 9.78125 -0.125 9.484375 -0.132812 9.078125 -0.15625 C 7.742188 -0.21875 5.957031 -0.25 3.71875 -0.25 C 3.082031 -0.25 2.460938 -0.226562 1.859375 -0.1875 C 1.253906 -0.144531 0.84375 -0.125 0.625 -0.125 Z M 0.625 -0.125 "/></g></g><g style="fill:#ffffff;fill-opacity:1;"><g transform="translate(64.545561, 35.941381)"><path style="stroke:none" d="M 1.078125 -0.09375 L 1.0625 -1.21875 C 1.269531 -1.320312 1.734375 -1.472656 2.453125 -1.671875 C 3.179688 -1.878906 3.585938 -2.023438 3.671875 -2.109375 C 3.804688 -2.253906 3.875 -2.457031 3.875 -2.71875 L 3.875 -3.15625 C 3.925781 -4.375 3.953125 -5.050781 3.953125 -5.1875 C 3.953125 -5.3125 3.945312 -5.476562 3.9375 -5.6875 L 3.921875 -5.921875 L 3.9375 -6.171875 L 3.9375 -6.34375 L 3.828125 -9.71875 L 3.796875 -13.484375 L 3.765625 -13.859375 C 3.523438 -13.859375 3.175781 -13.867188 2.71875 -13.890625 L 1.484375 -13.890625 C 1.410156 -13.910156 1.300781 -13.9375 1.15625 -13.96875 C 1.144531 -14.320312 1.140625 -14.601562 1.140625 -14.8125 C 1.140625 -15.175781 1.226562 -15.472656 1.40625 -15.703125 C 1.800781 -15.703125 2.570312 -15.75 3.71875 -15.84375 C 3.757812 -17.394531 4.007812 -18.851562 4.46875 -20.21875 C 4.9375 -21.582031 5.523438 -22.675781 6.234375 -23.5 L 6.75 -24.0625 C 7.601562 -24.800781 8.394531 -25.316406 9.125 -25.609375 C 9.851562 -25.898438 10.710938 -26.046875 11.703125 -26.046875 C 12.671875 -26.046875 13.46875 -25.890625 14.09375 -25.578125 C 14.726562 -25.265625 15.164062 -24.863281 15.40625 -24.375 C 15.65625 -23.882812 15.78125 -23.429688 15.78125 -23.015625 C 15.78125 -22.484375 15.5625 -22 15.125 -21.5625 C 14.695312 -21.125 14.222656 -20.90625 13.703125 -20.90625 C 13.304688 -20.90625 12.921875 -21.039062 12.546875 -21.3125 C 12.285156 -21.5 11.96875 -21.90625 11.59375 -22.53125 C 11.21875 -23.15625 10.925781 -23.550781 10.71875 -23.71875 C 10.507812 -23.875 10.234375 -23.953125 9.890625 -23.953125 C 9.492188 -23.953125 9.144531 -23.796875 8.84375 -23.484375 C 8.539062 -23.171875 8.328125 -22.71875 8.203125 -22.125 C 8.085938 -21.539062 8.03125 -20.363281 8.03125 -18.59375 L 8.015625 -16.4375 L 8.03125 -15.875 L 8.40625 -15.859375 L 10.734375 -15.921875 C 10.859375 -15.921875 11.046875 -15.898438 11.296875 -15.859375 C 11.460938 -15.703125 11.546875 -15.570312 11.546875 -15.46875 L 11.53125 -15.09375 L 11.53125 -14.5625 C 11.53125 -14.476562 11.507812 -14.328125 11.46875 -14.109375 C 11.351562 -14.046875 11.210938 -14.015625 11.046875 -14.015625 L 10.875 -14.015625 L 9.390625 -14 C 9.140625 -14 8.945312 -14.003906 8.8125 -14.015625 L 8.640625 -14.015625 C 8.515625 -14.015625 8.320312 -13.988281 8.0625 -13.9375 L 8.03125 -12.96875 C 8.03125 -12.882812 8.039062 -12.742188 8.0625 -12.546875 C 8.082031 -11.796875 8.09375 -11.285156 8.09375 -11.015625 L 8.078125 -8.140625 L 8.109375 -6.03125 L 8.09375 -4.34375 C 8.050781 -3.15625 8.160156 -2.4375 8.421875 -2.1875 C 8.804688 -1.8125 9.597656 -1.5625 10.796875 -1.4375 C 11.015625 -1.414062 11.21875 -1.367188 11.40625 -1.296875 C 11.457031 -0.984375 11.484375 -0.78125 11.484375 -0.6875 C 11.484375 -0.539062 11.457031 -0.335938 11.40625 -0.078125 L 10 -0.078125 C 9.875 -0.078125 9.109375 -0.125 7.703125 -0.21875 L 6.640625 -0.296875 C 5.617188 -0.296875 4.828125 -0.269531 4.265625 -0.21875 C 3.972656 -0.175781 2.910156 -0.132812 1.078125 -0.09375 Z M 1.078125 -0.09375 "/></g></g><g style="fill:#ffffff;fill-opacity:1;"><g transform="translate(76.029082, 35.941381)"><path style="stroke:none" d="M 1.6875 -10.5 C 2.019531 -11.613281 2.320312 -12.351562 2.59375 -12.71875 C 3.320312 -13.789062 4.097656 -14.625 4.921875 -15.21875 C 5.753906 -15.820312 6.503906 -16.222656 7.171875 -16.421875 C 8.035156 -16.671875 8.734375 -16.796875 9.265625 -16.796875 C 10.492188 -16.796875 11.488281 -16.703125 12.25 -16.515625 C 13.007812 -16.328125 13.644531 -16.054688 14.15625 -15.703125 C 14.882812 -15.191406 15.46875 -14.671875 15.90625 -14.140625 C 16.351562 -13.617188 16.71875 -13.003906 17 -12.296875 C 17.28125 -11.597656 17.4375 -10.742188 17.46875 -9.734375 L 15.28125 -9.78125 C 14.6875 -9.78125 13.367188 -9.835938 11.328125 -9.953125 C 10.566406 -10.003906 10.046875 -10.03125 9.765625 -10.03125 C 9.671875 -10.03125 8.960938 -10.023438 7.640625 -10.015625 L 5.953125 -10.015625 C 5.929688 -9.828125 5.921875 -9.671875 5.921875 -9.546875 C 5.921875 -8.847656 6.003906 -8.117188 6.171875 -7.359375 C 6.335938 -6.597656 6.59375 -5.925781 6.9375 -5.34375 C 7.28125 -4.757812 7.703125 -4.257812 8.203125 -3.84375 C 8.703125 -3.425781 9.222656 -3.125 9.765625 -2.9375 L 10.890625 -2.5625 C 11.898438 -2.5625 12.578125 -2.597656 12.921875 -2.671875 C 13.546875 -2.796875 14.09375 -2.957031 14.5625 -3.15625 C 15.039062 -3.363281 15.625 -3.707031 16.3125 -4.1875 C 16.78125 -3.851562 17.171875 -3.546875 17.484375 -3.265625 C 16.335938 -2.003906 15.144531 -1.085938 13.90625 -0.515625 C 12.664062 0.046875 11.285156 0.328125 9.765625 0.328125 C 8.734375 0.328125 7.890625 0.238281 7.234375 0.0625 C 6.359375 -0.175781 5.566406 -0.535156 4.859375 -1.015625 C 4.148438 -1.503906 3.539062 -2.109375 3.03125 -2.828125 C 2.53125 -3.546875 2.15625 -4.28125 1.90625 -5.03125 C 1.570312 -6.03125 1.40625 -6.828125 1.40625 -7.421875 C 1.40625 -8.566406 1.5 -9.59375 1.6875 -10.5 Z M 13.078125 -11.34375 C 13.054688 -12.082031 12.910156 -12.78125 12.640625 -13.4375 C 12.367188 -14.101562 11.941406 -14.625 11.359375 -15 C 10.785156 -15.375 10.207031 -15.5625 9.625 -15.5625 C 8.75 -15.5625 7.957031 -15.175781 7.25 -14.40625 C 6.539062 -13.632812 6.144531 -12.585938 6.0625 -11.265625 L 10.53125 -11.25 C 10.8125 -11.25 11.210938 -11.269531 11.734375 -11.3125 C 12.117188 -11.351562 12.390625 -11.375 12.546875 -11.375 C 12.660156 -11.375 12.835938 -11.363281 13.078125 -11.34375 Z M 13.078125 -11.34375 "/></g></g><g style="fill:#ffffff;fill-opacity:0.4;"><g transform="translate(30.835331, 68.3955)"><path style="stroke:none" d="M 1.609375 -0.125 L 1.609375 -1.53125 C 1.867188 -1.601562 2.300781 -1.710938 2.90625 -1.859375 C 3.75 -2.066406 4.378906 -2.285156 4.796875 -2.515625 C 5.035156 -2.910156 5.15625 -3.46875 5.15625 -4.1875 L 5.140625 -6.5 L 5.171875 -10.96875 L 5.15625 -12.03125 C 5.25 -14.625 5.296875 -15.957031 5.296875 -16.03125 L 5.25 -18.640625 L 5.3125 -19.703125 L 5.21875 -21.9375 L 5.1875 -22.78125 C 5.175781 -22.90625 5.132812 -23.113281 5.0625 -23.40625 C 4.519531 -23.65625 3.648438 -23.8125 2.453125 -23.875 C 2.160156 -23.882812 1.929688 -23.90625 1.765625 -23.9375 L 1.703125 -25.65625 L 7.3125 -25.421875 C 8 -25.390625 8.429688 -25.375 8.609375 -25.375 C 9.378906 -25.375 10.613281 -25.425781 12.3125 -25.53125 C 13.257812 -25.601562 13.859375 -25.644531 14.109375 -25.65625 C 14.117188 -25.40625 14.125 -25.195312 14.125 -25.03125 C 14.125 -24.8125 14.113281 -24.523438 14.09375 -24.171875 C 13.570312 -23.984375 12.972656 -23.804688 12.296875 -23.640625 C 11.628906 -23.484375 11.078125 -23.316406 10.640625 -23.140625 C 10.566406 -22.804688 10.53125 -22.316406 10.53125 -21.671875 C 10.53125 -21.109375 10.546875 -20.65625 10.578125 -20.3125 C 10.546875 -18.101562 10.53125 -16.398438 10.53125 -15.203125 L 10.546875 -10.03125 L 10.484375 -7.40625 L 10.53125 -3.484375 L 10.5 -2.75 C 10.5 -2.644531 10.523438 -2.492188 10.578125 -2.296875 C 11.378906 -2.117188 12.109375 -2 12.765625 -1.9375 C 12.878906 -1.925781 13.273438 -1.875 13.953125 -1.78125 C 14.003906 -1.394531 14.03125 -1.066406 14.03125 -0.796875 C 14.03125 -0.660156 14.023438 -0.441406 14.015625 -0.140625 C 13.847656 -0.140625 13.71875 -0.132812 13.625 -0.125 C 13.207031 -0.09375 12.960938 -0.078125 12.890625 -0.078125 C 12.804688 -0.078125 12.640625 -0.0976562 12.390625 -0.140625 C 12.203125 -0.160156 11.332031 -0.25 9.78125 -0.40625 L 6.3125 -0.453125 C 5.613281 -0.453125 4.609375 -0.382812 3.296875 -0.25 C 2.429688 -0.175781 1.867188 -0.132812 1.609375 -0.125 Z M 1.609375 -0.125 "/></g></g><g style="fill:#ffffff;fill-opacity:0.4;"><g transform="translate(46.08005, 68.3955)"><path style="stroke:none" d="M 0.796875 -1.125 C 1.140625 -1.28125 1.457031 -1.382812 1.75 -1.4375 C 2.46875 -1.550781 2.882812 -1.644531 3 -1.71875 C 3.195312 -1.84375 3.328125 -1.988281 3.390625 -2.15625 C 3.472656 -2.414062 3.515625 -2.988281 3.515625 -3.875 L 3.515625 -5.59375 L 3.53125 -6.984375 L 3.46875 -9.03125 L 3.46875 -10.265625 C 3.46875 -11.085938 3.398438 -11.765625 3.265625 -12.296875 C 3.210938 -12.484375 3.050781 -12.675781 2.78125 -12.875 C 2.414062 -13.132812 1.796875 -13.390625 0.921875 -13.640625 L 0.90625 -14.578125 C 1.070312 -14.628906 1.222656 -14.664062 1.359375 -14.6875 C 1.492188 -14.707031 2.019531 -14.835938 2.9375 -15.078125 C 3.65625 -15.335938 4.117188 -15.519531 4.328125 -15.625 C 4.390625 -15.664062 4.492188 -15.722656 4.640625 -15.796875 C 4.796875 -15.929688 4.972656 -16.0625 5.171875 -16.1875 C 5.566406 -16.457031 6.035156 -16.9375 6.578125 -17.625 L 7.625 -17.703125 L 7.578125 -15.484375 C 7.566406 -15.265625 7.5625 -15.085938 7.5625 -14.953125 C 7.5625 -14.847656 7.566406 -14.546875 7.578125 -14.046875 C 8.671875 -14.992188 9.660156 -15.648438 10.546875 -16.015625 C 11.710938 -16.492188 12.816406 -16.734375 13.859375 -16.734375 C 15.085938 -16.734375 16.164062 -16.429688 17.09375 -15.828125 C 18.019531 -15.222656 18.625 -14.519531 18.90625 -13.71875 C 19.195312 -12.925781 19.34375 -11.316406 19.34375 -8.890625 L 19.265625 -2.515625 C 19.265625 -2.210938 19.316406 -1.960938 19.421875 -1.765625 C 19.554688 -1.660156 19.914062 -1.5625 20.5 -1.46875 L 21.46875 -1.296875 C 21.582031 -1.117188 21.640625 -0.910156 21.640625 -0.671875 C 21.640625 -0.515625 21.632812 -0.296875 21.625 -0.015625 L 17.78125 -0.296875 L 16.640625 -0.25 L 15.734375 -0.25 L 13.15625 -0.0625 L 12.484375 -0.0625 C 12.472656 -0.226562 12.46875 -0.359375 12.46875 -0.453125 C 12.46875 -0.679688 12.476562 -0.9375 12.5 -1.21875 C 12.6875 -1.257812 13.144531 -1.320312 13.875 -1.40625 C 14.070312 -1.4375 14.289062 -1.484375 14.53125 -1.546875 C 14.789062 -1.648438 14.9375 -1.753906 14.96875 -1.859375 C 15.070312 -2.078125 15.125 -2.503906 15.125 -3.140625 C 15.125 -4.234375 15.113281 -5.078125 15.09375 -5.671875 L 15.109375 -7.9375 C 15.117188 -10.695312 14.953125 -12.414062 14.609375 -13.09375 C 14.109375 -14.070312 13.363281 -14.5625 12.375 -14.5625 C 11.632812 -14.5625 10.875 -14.375 10.09375 -14 C 9.3125 -13.632812 8.5 -13.070312 7.65625 -12.3125 L 7.625 -11.96875 L 7.65625 -10.734375 L 7.640625 -9.421875 L 7.71875 -6.296875 L 7.6875 -5.796875 C 7.6875 -3.671875 7.769531 -2.46875 7.9375 -2.1875 C 8.101562 -1.914062 8.75 -1.617188 9.875 -1.296875 C 9.914062 -1.066406 9.9375 -0.898438 9.9375 -0.796875 C 9.9375 -0.640625 9.890625 -0.398438 9.796875 -0.078125 C 9.390625 -0.0664062 9.050781 -0.0625 8.78125 -0.0625 C 8.507812 -0.0625 8.078125 -0.0976562 7.484375 -0.171875 L 5.390625 -0.21875 C 4.347656 -0.21875 2.835938 -0.171875 0.859375 -0.078125 C 0.804688 -0.210938 0.78125 -0.347656 0.78125 -0.484375 C 0.78125 -0.585938 0.785156 -0.800781 0.796875 -1.125 Z M 0.796875 -1.125 "/></g></g><g style="fill:#ffffff;fill-opacity:1;"><g transform="translate(29.060783, 66.620952)"><path style="stroke:none" d="M 1.609375 -0.125 L 1.609375 -1.53125 C 1.867188 -1.601562 2.300781 -1.710938 2.90625 -1.859375 C 3.75 -2.066406 4.378906 -2.285156 4.796875 -2.515625 C 5.035156 -2.910156 5.15625 -3.46875 5.15625 -4.1875 L 5.140625 -6.5 L 5.171875 -10.96875 L 5.15625 -12.03125 C 5.25 -14.625 5.296875 -15.957031 5.296875 -16.03125 L 5.25 -18.640625 L 5.3125 -19.703125 L 5.21875 -21.9375 L 5.1875 -22.78125 C 5.175781 -22.90625 5.132812 -23.113281 5.0625 -23.40625 C 4.519531 -23.65625 3.648438 -23.8125 2.453125 -23.875 C 2.160156 -23.882812 1.929688 -23.90625 1.765625 -23.9375 L 1.703125 -25.65625 L 7.3125 -25.421875 C 8 -25.390625 8.429688 -25.375 8.609375 -25.375 C 9.378906 -25.375 10.613281 -25.425781 12.3125 -25.53125 C 13.257812 -25.601562 13.859375 -25.644531 14.109375 -25.65625 C 14.117188 -25.40625 14.125 -25.195312 14.125 -25.03125 C 14.125 -24.8125 14.113281 -24.523438 14.09375 -24.171875 C 13.570312 -23.984375 12.972656 -23.804688 12.296875 -23.640625 C 11.628906 -23.484375 11.078125 -23.316406 10.640625 -23.140625 C 10.566406 -22.804688 10.53125 -22.316406 10.53125 -21.671875 C 10.53125 -21.109375 10.546875 -20.65625 10.578125 -20.3125 C 10.546875 -18.101562 10.53125 -16.398438 10.53125 -15.203125 L 10.546875 -10.03125 L 10.484375 -7.40625 L 10.53125 -3.484375 L 10.5 -2.75 C 10.5 -2.644531 10.523438 -2.492188 10.578125 -2.296875 C 11.378906 -2.117188 12.109375 -2 12.765625 -1.9375 C 12.878906 -1.925781 13.273438 -1.875 13.953125 -1.78125 C 14.003906 -1.394531 14.03125 -1.066406 14.03125 -0.796875 C 14.03125 -0.660156 14.023438 -0.441406 14.015625 -0.140625 C 13.847656 -0.140625 13.71875 -0.132812 13.625 -0.125 C 13.207031 -0.09375 12.960938 -0.078125 12.890625 -0.078125 C 12.804688 -0.078125 12.640625 -0.0976562 12.390625 -0.140625 C 12.203125 -0.160156 11.332031 -0.25 9.78125 -0.40625 L 6.3125 -0.453125 C 5.613281 -0.453125 4.609375 -0.382812 3.296875 -0.25 C 2.429688 -0.175781 1.867188 -0.132812 1.609375 -0.125 Z M 1.609375 -0.125 "/></g></g><g style="fill:#ffffff;fill-opacity:1;"><g transform="translate(44.305502, 66.620952)"><path style="stroke:none" d="M 0.796875 -1.125 C 1.140625 -1.28125 1.457031 -1.382812 1.75 -1.4375 C 2.46875 -1.550781 2.882812 -1.644531 3 -1.71875 C 3.195312 -1.84375 3.328125 -1.988281 3.390625 -2.15625 C 3.472656 -2.414062 3.515625 -2.988281 3.515625 -3.875 L 3.515625 -5.59375 L 3.53125 -6.984375 L 3.46875 -9.03125 L 3.46875 -10.265625 C 3.46875 -11.085938 3.398438 -11.765625 3.265625 -12.296875 C 3.210938 -12.484375 3.050781 -12.675781 2.78125 -12.875 C 2.414062 -13.132812 1.796875 -13.390625 0.921875 -13.640625 L 0.90625 -14.578125 C 1.070312 -14.628906 1.222656 -14.664062 1.359375 -14.6875 C 1.492188 -14.707031 2.019531 -14.835938 2.9375 -15.078125 C 3.65625 -15.335938 4.117188 -15.519531 4.328125 -15.625 C 4.390625 -15.664062 4.492188 -15.722656 4.640625 -15.796875 C 4.796875 -15.929688 4.972656 -16.0625 5.171875 -16.1875 C 5.566406 -16.457031 6.035156 -16.9375 6.578125 -17.625 L 7.625 -17.703125 L 7.578125 -15.484375 C 7.566406 -15.265625 7.5625 -15.085938 7.5625 -14.953125 C 7.5625 -14.847656 7.566406 -14.546875 7.578125 -14.046875 C 8.671875 -14.992188 9.660156 -15.648438 10.546875 -16.015625 C 11.710938 -16.492188 12.816406 -16.734375 13.859375 -16.734375 C 15.085938 -16.734375 16.164062 -16.429688 17.09375 -15.828125 C 18.019531 -15.222656 18.625 -14.519531 18.90625 -13.71875 C 19.195312 -12.925781 19.34375 -11.316406 19.34375 -8.890625 L 19.265625 -2.515625 C 19.265625 -2.210938 19.316406 -1.960938 19.421875 -1.765625 C 19.554688 -1.660156 19.914062 -1.5625 20.5 -1.46875 L 21.46875 -1.296875 C 21.582031 -1.117188 21.640625 -0.910156 21.640625 -0.671875 C 21.640625 -0.515625 21.632812 -0.296875 21.625 -0.015625 L 17.78125 -0.296875 L 16.640625 -0.25 L 15.734375 -0.25 L 13.15625 -0.0625 L 12.484375 -0.0625 C 12.472656 -0.226562 12.46875 -0.359375 12.46875 -0.453125 C 12.46875 -0.679688 12.476562 -0.9375 12.5 -1.21875 C 12.6875 -1.257812 13.144531 -1.320312 13.875 -1.40625 C 14.070312 -1.4375 14.289062 -1.484375 14.53125 -1.546875 C 14.789062 -1.648438 14.9375 -1.753906 14.96875 -1.859375 C 15.070312 -2.078125 15.125 -2.503906 15.125 -3.140625 C 15.125 -4.234375 15.113281 -5.078125 15.09375 -5.671875 L 15.109375 -7.9375 C 15.117188 -10.695312 14.953125 -12.414062 14.609375 -13.09375 C 14.109375 -14.070312 13.363281 -14.5625 12.375 -14.5625 C 11.632812 -14.5625 10.875 -14.375 10.09375 -14 C 9.3125 -13.632812 8.5 -13.070312 7.65625 -12.3125 L 7.625 -11.96875 L 7.65625 -10.734375 L 7.640625 -9.421875 L 7.71875 -6.296875 L 7.6875 -5.796875 C 7.6875 -3.671875 7.769531 -2.46875 7.9375 -2.1875 C 8.101562 -1.914062 8.75 -1.617188 9.875 -1.296875 C 9.914062 -1.066406 9.9375 -0.898438 9.9375 -0.796875 C 9.9375 -0.640625 9.890625 -0.398438 9.796875 -0.078125 C 9.390625 -0.0664062 9.050781 -0.0625 8.78125 -0.0625 C 8.507812 -0.0625 8.078125 -0.0976562 7.484375 -0.171875 L 5.390625 -0.21875 C 4.347656 -0.21875 2.835938 -0.171875 0.859375 -0.078125 C 0.804688 -0.210938 0.78125 -0.347656 0.78125 -0.484375 C 0.78125 -0.585938 0.785156 -0.800781 0.796875 -1.125 Z M 0.796875 -1.125 "/></g></g><g style="fill:#ffffff;fill-opacity:0.4;"><g transform="translate(30.835331, 99.075071)"><path style="stroke:none" d="M 24.09375 -25.09375 C 24.257812 -24.695312 24.601562 -23.578125 25.125 -21.734375 C 25.363281 -20.898438 25.488281 -20.015625 25.5 -19.078125 L 23.71875 -19.078125 C 22.457031 -20.847656 21.160156 -22.117188 19.828125 -22.890625 C 18.492188 -23.671875 17.003906 -24.0625 15.359375 -24.0625 C 13.335938 -24.0625 11.707031 -23.273438 10.46875 -21.703125 C 8.78125 -19.554688 7.9375 -16.566406 7.9375 -12.734375 C 7.9375 -10.515625 8.082031 -8.9375 8.375 -8 C 8.84375 -6.46875 9.4375 -5.21875 10.15625 -4.25 C 10.695312 -3.519531 11.414062 -2.941406 12.3125 -2.515625 C 13.457031 -1.921875 14.6875 -1.625 16 -1.625 C 17.4375 -1.625 18.820312 -2.070312 20.15625 -2.96875 C 21.5 -3.863281 22.785156 -5.203125 24.015625 -6.984375 C 24.492188 -7.066406 25.125 -7.117188 25.90625 -7.140625 C 25.851562 -6.640625 25.769531 -6.125 25.65625 -5.59375 C 25.613281 -5.375 25.460938 -4.539062 25.203125 -3.09375 L 25.03125 -2.515625 L 24.75 -1.59375 C 23.957031 -0.976562 22.835938 -0.515625 21.390625 -0.203125 C 19.953125 0.0976562 18.179688 0.25 16.078125 0.25 C 14.460938 0.25 12.941406 0.101562 11.515625 -0.1875 C 10.085938 -0.488281 8.863281 -0.96875 7.84375 -1.625 C 6.351562 -2.5625 5.179688 -3.578125 4.328125 -4.671875 C 3.484375 -5.773438 2.851562 -6.972656 2.4375 -8.265625 C 2.03125 -9.566406 1.828125 -11.019531 1.828125 -12.625 C 1.828125 -16.519531 3.109375 -19.734375 5.671875 -22.265625 C 8.242188 -24.796875 11.519531 -26.0625 15.5 -26.0625 C 17.125 -26.0625 18.648438 -25.976562 20.078125 -25.8125 C 21.503906 -25.65625 22.84375 -25.414062 24.09375 -25.09375 Z M 24.09375 -25.09375 "/></g></g><g style="fill:#ffffff;fill-opacity:0.4;"><g transform="translate(57.363642, 99.075071)"><path style="stroke:none" d="M 16.96875 -14.40625 C 17.8125 -13.59375 18.4375 -12.660156 18.84375 -11.609375 C 19.257812 -10.554688 19.46875 -9.566406 19.46875 -8.640625 C 19.46875 -6.890625 19.195312 -5.476562 18.65625 -4.40625 C 17.84375 -2.789062 16.75 -1.597656 15.375 -0.828125 C 14.007812 -0.0546875 12.421875 0.328125 10.609375 0.328125 C 8.566406 0.328125 6.835938 -0.125 5.421875 -1.03125 C 4.003906 -1.945312 2.988281 -2.988281 2.375 -4.15625 C 1.769531 -5.320312 1.46875 -6.765625 1.46875 -8.484375 C 1.46875 -9.359375 1.609375 -10.238281 1.890625 -11.125 C 2.179688 -12.007812 2.578125 -12.773438 3.078125 -13.421875 C 3.585938 -14.078125 4.144531 -14.628906 4.75 -15.078125 C 5.625 -15.703125 6.5 -16.144531 7.375 -16.40625 C 8.257812 -16.675781 9.328125 -16.8125 10.578125 -16.8125 C 13.316406 -16.8125 15.445312 -16.007812 16.96875 -14.40625 Z M 6.25 -7.625 C 6.363281 -6 6.445312 -5.066406 6.5 -4.828125 C 6.675781 -3.953125 6.945312 -3.195312 7.3125 -2.5625 C 7.5625 -2.15625 7.972656 -1.796875 8.546875 -1.484375 C 9.117188 -1.171875 9.804688 -1.015625 10.609375 -1.015625 C 11.554688 -1.015625 12.359375 -1.316406 13.015625 -1.921875 C 13.671875 -2.535156 14.140625 -3.488281 14.421875 -4.78125 C 14.609375 -5.632812 14.703125 -7.023438 14.703125 -8.953125 C 14.703125 -11.335938 14.304688 -13.019531 13.515625 -14 C 12.734375 -14.988281 11.703125 -15.484375 10.421875 -15.484375 C 9.421875 -15.484375 8.585938 -15.203125 7.921875 -14.640625 C 7.265625 -14.078125 6.804688 -13.25 6.546875 -12.15625 C 6.378906 -11.445312 6.28125 -9.9375 6.25 -7.625 Z M 6.25 -7.625 "/></g></g><g style="fill:#ffffff;fill-opacity:1;"><g transform="translate(29.060783, 97.300523)"><path style="stroke:none" d="M 24.09375 -25.09375 C 24.257812 -24.695312 24.601562 -23.578125 25.125 -21.734375 C 25.363281 -20.898438 25.488281 -20.015625 25.5 -19.078125 L 23.71875 -19.078125 C 22.457031 -20.847656 21.160156 -22.117188 19.828125 -22.890625 C 18.492188 -23.671875 17.003906 -24.0625 15.359375 -24.0625 C 13.335938 -24.0625 11.707031 -23.273438 10.46875 -21.703125 C 8.78125 -19.554688 7.9375 -16.566406 7.9375 -12.734375 C 7.9375 -10.515625 8.082031 -8.9375 8.375 -8 C 8.84375 -6.46875 9.4375 -5.21875 10.15625 -4.25 C 10.695312 -3.519531 11.414062 -2.941406 12.3125 -2.515625 C 13.457031 -1.921875 14.6875 -1.625 16 -1.625 C 17.4375 -1.625 18.820312 -2.070312 20.15625 -2.96875 C 21.5 -3.863281 22.785156 -5.203125 24.015625 -6.984375 C 24.492188 -7.066406 25.125 -7.117188 25.90625 -7.140625 C 25.851562 -6.640625 25.769531 -6.125 25.65625 -5.59375 C 25.613281 -5.375 25.460938 -4.539062 25.203125 -3.09375 L 25.03125 -2.515625 L 24.75 -1.59375 C 23.957031 -0.976562 22.835938 -0.515625 21.390625 -0.203125 C 19.953125 0.0976562 18.179688 0.25 16.078125 0.25 C 14.460938 0.25 12.941406 0.101562 11.515625 -0.1875 C 10.085938 -0.488281 8.863281 -0.96875 7.84375 -1.625 C 6.351562 -2.5625 5.179688 -3.578125 4.328125 -4.671875 C 3.484375 -5.773438 2.851562 -6.972656 2.4375 -8.265625 C 2.03125 -9.566406 1.828125 -11.019531 1.828125 -12.625 C 1.828125 -16.519531 3.109375 -19.734375 5.671875 -22.265625 C 8.242188 -24.796875 11.519531 -26.0625 15.5 -26.0625 C 17.125 -26.0625 18.648438 -25.976562 20.078125 -25.8125 C 21.503906 -25.65625 22.84375 -25.414062 24.09375 -25.09375 Z M 24.09375 -25.09375 "/></g></g><g style="fill:#ffffff;fill-opacity:1;"><g transform="translate(55.589094, 97.300523)"><path style="stroke:none" d="M 16.96875 -14.40625 C 17.8125 -13.59375 18.4375 -12.660156 18.84375 -11.609375 C 19.257812 -10.554688 19.46875 -9.566406 19.46875 -8.640625 C 19.46875 -6.890625 19.195312 -5.476562 18.65625 -4.40625 C 17.84375 -2.789062 16.75 -1.597656 15.375 -0.828125 C 14.007812 -0.0546875 12.421875 0.328125 10.609375 0.328125 C 8.566406 0.328125 6.835938 -0.125 5.421875 -1.03125 C 4.003906 -1.945312 2.988281 -2.988281 2.375 -4.15625 C 1.769531 -5.320312 1.46875 -6.765625 1.46875 -8.484375 C 1.46875 -9.359375 1.609375 -10.238281 1.890625 -11.125 C 2.179688 -12.007812 2.578125 -12.773438 3.078125 -13.421875 C 3.585938 -14.078125 4.144531 -14.628906 4.75 -15.078125 C 5.625 -15.703125 6.5 -16.144531 7.375 -16.40625 C 8.257812 -16.675781 9.328125 -16.8125 10.578125 -16.8125 C 13.316406 -16.8125 15.445312 -16.007812 16.96875 -14.40625 Z M 6.25 -7.625 C 6.363281 -6 6.445312 -5.066406 6.5 -4.828125 C 6.675781 -3.953125 6.945312 -3.195312 7.3125 -2.5625 C 7.5625 -2.15625 7.972656 -1.796875 8.546875 -1.484375 C 9.117188 -1.171875 9.804688 -1.015625 10.609375 -1.015625 C 11.554688 -1.015625 12.359375 -1.316406 13.015625 -1.921875 C 13.671875 -2.535156 14.140625 -3.488281 14.421875 -4.78125 C 14.609375 -5.632812 14.703125 -7.023438 14.703125 -8.953125 C 14.703125 -11.335938 14.304688 -13.019531 13.515625 -14 C 12.734375 -14.988281 11.703125 -15.484375 10.421875 -15.484375 C 9.421875 -15.484375 8.585938 -15.203125 7.921875 -14.640625 C 7.265625 -14.078125 6.804688 -13.25 6.546875 -12.15625 C 6.378906 -11.445312 6.28125 -9.9375 6.25 -7.625 Z M 6.25 -7.625 "/></g></g><g style="fill:#ffffff;fill-opacity:0.4;"><g transform="translate(77.629052, 99.075071)"><path style="stroke:none" d=""/></g></g><g style="fill:#ffffff;fill-opacity:1;"><g transform="translate(75.854504, 97.300523)"><path style="stroke:none" d=""/></g></g></g></svg>
