<?xml version="1.0" encoding="UTF-8"?>
<svg xmlns="http://www.w3.org/2000/svg" xmlns:xlink="http://www.w3.org/1999/xlink" width="16px" height="16px" viewBox="0 0 16 16" version="1.1">
<defs>
<clipPath id="clip1">
  <path d="M 2.054688 0.335938 L 13.546875 0.335938 L 13.546875 15.4375 L 2.054688 15.4375 Z M 2.054688 0.335938 "/>
</clipPath>
<clipPath id="clip2">
  <path d="M 2.617188 0.335938 L 12.964844 0.335938 C 13.277344 0.335938 13.527344 0.667969 13.527344 1.082031 L 13.527344 14.691406 C 13.527344 15.105469 13.277344 15.4375 12.964844 15.4375 L 2.617188 15.4375 C 2.304688 15.4375 2.054688 15.105469 2.054688 14.691406 L 2.054688 1.082031 C 2.054688 0.667969 2.304688 0.335938 2.617188 0.335938 Z M 2.617188 0.335938 "/>
</clipPath>
</defs>
<g id="surface1">
<g clip-path="url(#clip1)" clip-rule="nonzero">
<g clip-path="url(#clip2)" clip-rule="nonzero">
<path style=" stroke:none;fill-rule:nonzero;fill:rgb(9.019608%,12.54902%,19.607843%);fill-opacity:1;" d="M 2.054688 0.335938 L 13.515625 0.335938 L 13.515625 15.4375 L 2.054688 15.4375 Z M 2.054688 0.335938 "/>
</g>
</g>
<path style=" stroke:none;fill-rule:nonzero;fill:rgb(100%,100%,100%);fill-opacity:0.4;" d="M 3.386719 5.113281 C 3.429688 5.097656 3.488281 5.082031 3.566406 5.070312 C 3.644531 5.050781 3.691406 5.042969 3.707031 5.042969 C 3.761719 5.042969 3.796875 5.027344 3.816406 5.007812 C 3.824219 4.960938 3.828125 4.925781 3.828125 4.894531 L 3.824219 4.539062 L 3.835938 4.175781 L 3.835938 3.945312 L 3.839844 3.671875 L 3.835938 3.382812 L 3.84375 2.757812 L 3.847656 2.480469 L 3.847656 2.441406 C 3.835938 2.242188 3.828125 2.136719 3.816406 2.117188 C 3.808594 2.097656 3.769531 2.074219 3.699219 2.042969 C 3.691406 2.042969 3.664062 2.027344 3.617188 2 C 3.582031 1.984375 3.550781 1.972656 3.523438 1.964844 C 3.472656 1.945312 3.441406 1.925781 3.421875 1.902344 C 3.417969 1.855469 3.417969 1.820312 3.417969 1.792969 C 3.417969 1.777344 3.417969 1.757812 3.417969 1.726562 C 3.429688 1.71875 3.445312 1.714844 3.460938 1.714844 C 3.492188 1.714844 3.613281 1.722656 3.824219 1.734375 L 4.121094 1.734375 L 4.34375 1.738281 C 4.4375 1.738281 4.5625 1.730469 4.710938 1.714844 C 4.757812 1.707031 4.78125 1.703125 4.789062 1.703125 C 4.8125 1.703125 4.824219 1.710938 4.835938 1.726562 C 4.84375 1.746094 4.851562 1.785156 4.851562 1.835938 C 4.851562 1.878906 4.84375 1.914062 4.828125 1.933594 C 4.820312 1.949219 4.789062 1.960938 4.734375 1.96875 L 4.476562 2.050781 C 4.46875 2.054688 4.457031 2.0625 4.441406 2.074219 C 4.433594 2.085938 4.429688 2.097656 4.429688 2.105469 L 4.425781 2.183594 L 4.421875 2.359375 L 4.421875 2.441406 C 4.421875 2.449219 4.421875 2.5 4.414062 2.59375 C 4.414062 2.617188 4.414062 2.640625 4.414062 2.667969 C 4.414062 2.695312 4.414062 2.746094 4.417969 2.816406 C 4.421875 2.929688 4.425781 3.027344 4.425781 3.109375 C 4.425781 3.207031 4.421875 3.316406 4.417969 3.441406 C 4.417969 3.488281 4.414062 3.546875 4.414062 3.621094 L 4.40625 4.945312 C 4.40625 5 4.414062 5.035156 4.429688 5.054688 L 4.628906 5.0625 L 4.75 5.058594 L 4.882812 5.066406 C 5.105469 5.066406 5.28125 5.03125 5.410156 4.960938 C 5.507812 4.910156 5.570312 4.859375 5.597656 4.804688 C 5.648438 4.75 5.6875 4.691406 5.714844 4.625 C 5.746094 4.5625 5.78125 4.453125 5.816406 4.300781 L 5.882812 4.300781 C 5.917969 4.300781 5.953125 4.304688 5.996094 4.3125 L 5.996094 4.390625 C 5.996094 4.527344 5.984375 4.757812 5.960938 5.09375 C 5.949219 5.226562 5.9375 5.308594 5.929688 5.339844 C 5.898438 5.347656 5.875 5.351562 5.867188 5.351562 L 5.683594 5.351562 C 5.671875 5.351562 5.585938 5.347656 5.433594 5.332031 C 5.40625 5.328125 5.273438 5.324219 5.035156 5.3125 C 4.796875 5.300781 4.5625 5.296875 4.335938 5.296875 L 3.90625 5.3125 C 3.742188 5.316406 3.589844 5.328125 3.445312 5.34375 L 3.414062 5.34375 C 3.40625 5.34375 3.394531 5.339844 3.375 5.339844 C 3.371094 5.320312 3.371094 5.300781 3.371094 5.285156 C 3.371094 5.207031 3.375 5.152344 3.386719 5.113281 Z M 3.386719 5.113281 "/>
<path style=" stroke:none;fill-rule:nonzero;fill:rgb(100%,100%,100%);fill-opacity:0.4;" d="M 6.300781 2.023438 C 6.300781 1.921875 6.324219 1.839844 6.371094 1.773438 C 6.421875 1.710938 6.484375 1.679688 6.5625 1.679688 C 6.644531 1.679688 6.710938 1.714844 6.765625 1.78125 C 6.816406 1.847656 6.847656 1.925781 6.847656 2.011719 C 6.847656 2.074219 6.835938 2.136719 6.8125 2.203125 C 6.792969 2.265625 6.757812 2.316406 6.710938 2.351562 C 6.664062 2.390625 6.617188 2.410156 6.570312 2.410156 C 6.5 2.410156 6.4375 2.371094 6.382812 2.296875 C 6.328125 2.21875 6.300781 2.128906 6.300781 2.023438 Z M 6.003906 5.347656 L 6.003906 5.167969 L 6.238281 5.125 C 6.273438 5.109375 6.296875 5.09375 6.3125 5.066406 C 6.324219 5.042969 6.332031 4.984375 6.332031 4.898438 L 6.332031 4.867188 C 6.332031 4.847656 6.332031 4.804688 6.332031 4.75 C 6.335938 4.691406 6.335938 4.636719 6.335938 4.59375 C 6.335938 4.558594 6.335938 4.488281 6.332031 4.386719 L 6.332031 4.117188 L 6.335938 3.664062 C 6.335938 3.605469 6.328125 3.546875 6.324219 3.484375 C 6.304688 3.457031 6.277344 3.433594 6.238281 3.414062 C 6.199219 3.390625 6.128906 3.378906 6.027344 3.367188 L 6.027344 3.214844 C 6.171875 3.203125 6.296875 3.160156 6.40625 3.09375 C 6.480469 3.046875 6.558594 2.96875 6.644531 2.855469 L 6.785156 2.855469 C 6.792969 3.085938 6.792969 3.386719 6.792969 3.753906 L 6.777344 4.890625 C 6.777344 4.96875 6.78125 5.039062 6.789062 5.101562 C 6.832031 5.121094 6.902344 5.144531 7 5.164062 C 7.035156 5.171875 7.066406 5.179688 7.089844 5.191406 L 7.085938 5.34375 C 7.050781 5.347656 7.019531 5.347656 7.003906 5.347656 C 6.980469 5.347656 6.949219 5.34375 6.90625 5.34375 C 6.765625 5.332031 6.574219 5.328125 6.335938 5.328125 C 6.269531 5.328125 6.203125 5.332031 6.136719 5.335938 C 6.074219 5.34375 6.027344 5.347656 6.003906 5.347656 Z M 6.003906 5.347656 "/>
<path style=" stroke:none;fill-rule:nonzero;fill:rgb(100%,100%,100%);fill-opacity:0.4;" d="M 7.1875 5.351562 L 7.1875 5.191406 C 7.210938 5.175781 7.257812 5.15625 7.335938 5.125 C 7.414062 5.097656 7.457031 5.078125 7.464844 5.0625 C 7.480469 5.042969 7.488281 5.015625 7.488281 4.976562 L 7.488281 4.914062 C 7.492188 4.742188 7.496094 4.644531 7.496094 4.625 C 7.496094 4.609375 7.496094 4.585938 7.496094 4.554688 L 7.492188 4.523438 L 7.496094 4.484375 L 7.496094 4.460938 L 7.484375 3.980469 L 7.480469 3.445312 L 7.476562 3.394531 C 7.449219 3.394531 7.414062 3.390625 7.363281 3.386719 L 7.234375 3.386719 C 7.222656 3.386719 7.214844 3.382812 7.199219 3.378906 C 7.195312 3.328125 7.195312 3.289062 7.195312 3.257812 C 7.195312 3.207031 7.203125 3.164062 7.222656 3.128906 C 7.265625 3.128906 7.347656 3.125 7.472656 3.109375 C 7.476562 2.890625 7.5 2.683594 7.550781 2.488281 C 7.601562 2.292969 7.664062 2.140625 7.738281 2.023438 L 7.792969 1.941406 C 7.886719 1.835938 7.96875 1.761719 8.046875 1.722656 C 8.125 1.679688 8.214844 1.660156 8.324219 1.660156 C 8.425781 1.660156 8.511719 1.683594 8.578125 1.726562 C 8.644531 1.769531 8.691406 1.828125 8.71875 1.898438 C 8.746094 1.96875 8.757812 2.03125 8.757812 2.089844 C 8.757812 2.167969 8.734375 2.234375 8.6875 2.296875 C 8.640625 2.359375 8.589844 2.390625 8.535156 2.390625 C 8.492188 2.390625 8.453125 2.371094 8.414062 2.332031 C 8.382812 2.304688 8.351562 2.25 8.3125 2.160156 C 8.269531 2.070312 8.238281 2.015625 8.21875 1.992188 C 8.195312 1.96875 8.164062 1.957031 8.128906 1.957031 C 8.085938 1.957031 8.050781 1.980469 8.015625 2.023438 C 7.984375 2.070312 7.960938 2.132812 7.949219 2.21875 C 7.9375 2.300781 7.929688 2.46875 7.929688 2.71875 L 7.929688 3.105469 L 7.972656 3.109375 L 8.21875 3.097656 C 8.234375 3.097656 8.253906 3.101562 8.277344 3.109375 C 8.296875 3.128906 8.304688 3.148438 8.304688 3.164062 L 8.304688 3.292969 C 8.304688 3.304688 8.300781 3.328125 8.296875 3.355469 C 8.285156 3.367188 8.269531 3.371094 8.253906 3.371094 L 8.074219 3.371094 C 8.050781 3.371094 8.027344 3.371094 8.015625 3.371094 L 7.996094 3.371094 C 7.984375 3.371094 7.960938 3.375 7.933594 3.382812 L 7.929688 3.519531 C 7.929688 3.53125 7.933594 3.550781 7.933594 3.578125 C 7.9375 3.6875 7.9375 3.757812 7.9375 3.796875 L 7.9375 4.746094 C 7.933594 4.914062 7.945312 5.015625 7.972656 5.054688 C 8.011719 5.105469 8.097656 5.140625 8.226562 5.160156 C 8.25 5.164062 8.269531 5.167969 8.289062 5.179688 C 8.296875 5.222656 8.300781 5.253906 8.300781 5.265625 C 8.300781 5.289062 8.296875 5.316406 8.289062 5.351562 L 8.140625 5.351562 C 8.128906 5.351562 8.046875 5.347656 7.894531 5.332031 L 7.78125 5.320312 C 7.671875 5.320312 7.589844 5.324219 7.527344 5.332031 C 7.496094 5.339844 7.382812 5.34375 7.1875 5.351562 Z M 7.1875 5.351562 "/>
<path style=" stroke:none;fill-rule:nonzero;fill:rgb(100%,100%,100%);fill-opacity:0.4;" d="M 8.480469 3.871094 C 8.515625 3.710938 8.546875 3.605469 8.574219 3.554688 C 8.652344 3.402344 8.734375 3.285156 8.824219 3.199219 C 8.914062 3.113281 8.992188 3.058594 9.0625 3.027344 C 9.15625 2.992188 9.230469 2.976562 9.289062 2.976562 C 9.417969 2.976562 9.523438 2.988281 9.605469 3.015625 C 9.6875 3.042969 9.753906 3.082031 9.808594 3.128906 C 9.886719 3.203125 9.949219 3.277344 9.996094 3.351562 C 10.042969 3.425781 10.082031 3.515625 10.113281 3.613281 C 10.140625 3.714844 10.160156 3.835938 10.164062 3.980469 L 9.929688 3.972656 C 9.867188 3.972656 9.726562 3.964844 9.507812 3.949219 C 9.425781 3.941406 9.371094 3.9375 9.339844 3.9375 C 9.332031 3.9375 9.253906 3.9375 9.113281 3.941406 L 8.933594 3.941406 C 8.929688 3.964844 8.929688 3.988281 8.929688 4.007812 C 8.929688 4.105469 8.941406 4.210938 8.957031 4.316406 C 8.976562 4.425781 9.003906 4.519531 9.039062 4.605469 C 9.074219 4.6875 9.121094 4.757812 9.175781 4.816406 C 9.226562 4.875 9.28125 4.917969 9.339844 4.945312 L 9.460938 5 C 9.566406 5 9.640625 4.996094 9.675781 4.984375 C 9.742188 4.964844 9.800781 4.945312 9.851562 4.914062 C 9.902344 4.886719 9.964844 4.835938 10.039062 4.769531 C 10.089844 4.816406 10.128906 4.859375 10.164062 4.898438 C 10.042969 5.078125 9.914062 5.210938 9.78125 5.289062 C 9.648438 5.371094 9.503906 5.410156 9.339844 5.410156 C 9.230469 5.410156 9.140625 5.398438 9.070312 5.371094 C 8.976562 5.339844 8.894531 5.289062 8.816406 5.21875 C 8.742188 5.148438 8.675781 5.0625 8.621094 4.960938 C 8.570312 4.859375 8.527344 4.753906 8.503906 4.648438 C 8.464844 4.507812 8.449219 4.394531 8.449219 4.308594 C 8.449219 4.144531 8.460938 4 8.480469 3.871094 Z M 9.695312 3.75 C 9.691406 3.644531 9.675781 3.546875 9.648438 3.453125 C 9.617188 3.359375 9.574219 3.285156 9.511719 3.230469 C 9.449219 3.175781 9.386719 3.152344 9.324219 3.152344 C 9.230469 3.152344 9.148438 3.207031 9.074219 3.316406 C 8.996094 3.425781 8.953125 3.574219 8.945312 3.761719 L 9.421875 3.765625 C 9.453125 3.765625 9.496094 3.761719 9.550781 3.753906 C 9.589844 3.75 9.621094 3.746094 9.636719 3.746094 C 9.648438 3.746094 9.667969 3.746094 9.695312 3.75 Z M 9.695312 3.75 "/>
<path style=" stroke:none;fill-rule:nonzero;fill:rgb(100%,100%,100%);fill-opacity:1;" d="M 3.195312 4.863281 C 3.238281 4.847656 3.300781 4.832031 3.378906 4.816406 C 3.457031 4.800781 3.503906 4.792969 3.519531 4.792969 C 3.574219 4.789062 3.609375 4.777344 3.625 4.753906 C 3.636719 4.710938 3.640625 4.671875 3.640625 4.644531 L 3.636719 4.289062 L 3.648438 3.925781 L 3.648438 3.421875 L 3.644531 3.128906 L 3.652344 2.507812 L 3.65625 2.226562 L 3.65625 2.1875 C 3.644531 1.992188 3.636719 1.882812 3.628906 1.863281 C 3.617188 1.847656 3.578125 1.820312 3.507812 1.792969 C 3.5 1.789062 3.472656 1.773438 3.429688 1.75 C 3.394531 1.730469 3.363281 1.71875 3.332031 1.710938 C 3.285156 1.695312 3.25 1.675781 3.230469 1.652344 C 3.230469 1.605469 3.226562 1.566406 3.226562 1.539062 C 3.226562 1.527344 3.230469 1.503906 3.230469 1.472656 C 3.242188 1.464844 3.253906 1.460938 3.269531 1.460938 C 3.304688 1.460938 3.425781 1.46875 3.632812 1.484375 L 3.929688 1.480469 L 4.152344 1.484375 C 4.25 1.484375 4.375 1.476562 4.523438 1.460938 C 4.566406 1.453125 4.59375 1.453125 4.601562 1.453125 C 4.621094 1.453125 4.636719 1.460938 4.644531 1.472656 C 4.65625 1.496094 4.660156 1.53125 4.660156 1.585938 C 4.660156 1.628906 4.652344 1.660156 4.636719 1.683594 C 4.628906 1.695312 4.601562 1.707031 4.546875 1.714844 L 4.285156 1.796875 C 4.28125 1.800781 4.269531 1.808594 4.25 1.820312 C 4.246094 1.832031 4.242188 1.84375 4.238281 1.855469 L 4.238281 1.933594 L 4.230469 2.105469 L 4.230469 2.15625 L 4.234375 2.1875 C 4.234375 2.195312 4.230469 2.246094 4.226562 2.339844 C 4.226562 2.363281 4.226562 2.390625 4.226562 2.414062 C 4.226562 2.445312 4.226562 2.492188 4.226562 2.5625 C 4.230469 2.675781 4.234375 2.773438 4.234375 2.855469 C 4.234375 2.953125 4.230469 3.0625 4.226562 3.1875 C 4.226562 3.234375 4.226562 3.296875 4.226562 3.371094 L 4.21875 4.691406 C 4.21875 4.746094 4.226562 4.78125 4.238281 4.800781 L 4.4375 4.8125 L 4.5625 4.808594 L 4.691406 4.8125 C 4.917969 4.8125 5.09375 4.78125 5.222656 4.710938 C 5.316406 4.65625 5.378906 4.605469 5.410156 4.554688 C 5.457031 4.496094 5.496094 4.4375 5.527344 4.375 C 5.554688 4.308594 5.589844 4.199219 5.628906 4.050781 L 5.695312 4.050781 C 5.726562 4.050781 5.765625 4.054688 5.804688 4.0625 L 5.804688 4.136719 C 5.804688 4.273438 5.792969 4.507812 5.769531 4.839844 C 5.761719 4.976562 5.75 5.058594 5.738281 5.085938 C 5.707031 5.09375 5.6875 5.097656 5.679688 5.097656 L 5.601562 5.097656 L 5.492188 5.101562 C 5.480469 5.101562 5.398438 5.09375 5.246094 5.078125 C 5.21875 5.078125 5.082031 5.070312 4.84375 5.0625 C 4.605469 5.050781 4.375 5.042969 4.144531 5.042969 L 3.71875 5.058594 C 3.554688 5.0625 3.398438 5.074219 3.257812 5.089844 L 3.226562 5.089844 C 3.21875 5.089844 3.203125 5.089844 3.183594 5.085938 C 3.183594 5.066406 3.179688 5.050781 3.179688 5.035156 C 3.179688 4.957031 3.1875 4.898438 3.195312 4.863281 Z M 3.195312 4.863281 "/>
<path style=" stroke:none;fill-rule:nonzero;fill:rgb(100%,100%,100%);fill-opacity:1;" d="M 6.109375 1.769531 C 6.109375 1.667969 6.132812 1.585938 6.183594 1.523438 C 6.230469 1.460938 6.292969 1.425781 6.371094 1.425781 C 6.453125 1.425781 6.519531 1.460938 6.574219 1.53125 C 6.628906 1.597656 6.65625 1.671875 6.65625 1.757812 C 6.65625 1.820312 6.644531 1.886719 6.625 1.949219 C 6.605469 2.011719 6.570312 2.0625 6.519531 2.101562 C 6.476562 2.136719 6.425781 2.15625 6.378906 2.15625 C 6.3125 2.15625 6.25 2.117188 6.191406 2.042969 C 6.136719 1.964844 6.109375 1.875 6.109375 1.769531 Z M 5.816406 5.09375 L 5.8125 4.914062 L 6.046875 4.871094 C 6.082031 4.859375 6.109375 4.839844 6.121094 4.8125 C 6.136719 4.789062 6.140625 4.734375 6.140625 4.648438 L 6.140625 4.617188 C 6.140625 4.59375 6.140625 4.554688 6.144531 4.496094 C 6.144531 4.4375 6.144531 4.386719 6.144531 4.339844 C 6.144531 4.304688 6.144531 4.238281 6.140625 4.136719 L 6.144531 3.996094 L 6.140625 3.863281 L 6.144531 3.410156 C 6.144531 3.355469 6.140625 3.296875 6.132812 3.234375 C 6.117188 3.207031 6.089844 3.183594 6.046875 3.160156 C 6.007812 3.140625 5.9375 3.125 5.839844 3.117188 L 5.839844 2.960938 C 5.980469 2.949219 6.105469 2.910156 6.214844 2.839844 C 6.289062 2.796875 6.371094 2.71875 6.457031 2.601562 L 6.597656 2.601562 C 6.601562 2.832031 6.605469 3.132812 6.605469 3.5 L 6.589844 4.636719 C 6.589844 4.714844 6.59375 4.785156 6.597656 4.847656 C 6.640625 4.871094 6.710938 4.890625 6.808594 4.910156 C 6.847656 4.917969 6.878906 4.929688 6.898438 4.9375 L 6.898438 5.089844 C 6.859375 5.09375 6.832031 5.09375 6.8125 5.09375 C 6.792969 5.09375 6.761719 5.09375 6.71875 5.089844 C 6.574219 5.082031 6.386719 5.074219 6.144531 5.074219 C 6.078125 5.074219 6.011719 5.078125 5.949219 5.085938 C 5.882812 5.089844 5.839844 5.09375 5.816406 5.09375 Z M 5.816406 5.09375 "/>
<path style=" stroke:none;fill-rule:nonzero;fill:rgb(100%,100%,100%);fill-opacity:1;" d="M 7 5.097656 L 7 4.9375 C 7.019531 4.925781 7.070312 4.902344 7.148438 4.875 C 7.222656 4.84375 7.265625 4.824219 7.277344 4.8125 C 7.289062 4.792969 7.296875 4.761719 7.296875 4.726562 L 7.296875 4.664062 C 7.304688 4.488281 7.304688 4.394531 7.304688 4.375 C 7.304688 4.355469 7.304688 4.332031 7.304688 4.304688 L 7.304688 4.210938 L 7.292969 3.730469 L 7.289062 3.195312 L 7.285156 3.140625 C 7.261719 3.140625 7.222656 3.140625 7.175781 3.136719 L 7.042969 3.136719 C 7.035156 3.132812 7.023438 3.128906 7.007812 3.125 C 7.007812 3.074219 7.007812 3.035156 7.007812 3.003906 C 7.007812 2.953125 7.015625 2.910156 7.035156 2.878906 C 7.078125 2.878906 7.160156 2.871094 7.28125 2.859375 C 7.285156 2.636719 7.3125 2.429688 7.363281 2.234375 C 7.410156 2.042969 7.472656 1.886719 7.550781 1.769531 L 7.605469 1.6875 C 7.695312 1.585938 7.78125 1.511719 7.859375 1.46875 C 7.9375 1.429688 8.027344 1.40625 8.132812 1.40625 C 8.238281 1.40625 8.320312 1.429688 8.386719 1.472656 C 8.457031 1.519531 8.503906 1.574219 8.527344 1.644531 C 8.554688 1.714844 8.566406 1.78125 8.566406 1.839844 C 8.566406 1.914062 8.542969 1.984375 8.5 2.046875 C 8.453125 2.105469 8.402344 2.136719 8.347656 2.136719 C 8.304688 2.136719 8.261719 2.121094 8.222656 2.082031 C 8.195312 2.054688 8.160156 1.996094 8.121094 1.90625 C 8.082031 1.816406 8.050781 1.761719 8.027344 1.738281 C 8.003906 1.714844 7.976562 1.703125 7.941406 1.703125 C 7.898438 1.703125 7.859375 1.726562 7.828125 1.773438 C 7.796875 1.816406 7.773438 1.878906 7.761719 1.964844 C 7.746094 2.046875 7.742188 2.214844 7.742188 2.46875 L 7.738281 2.773438 L 7.742188 2.855469 L 7.78125 2.855469 L 8.03125 2.847656 C 8.042969 2.847656 8.0625 2.851562 8.089844 2.855469 C 8.105469 2.878906 8.117188 2.898438 8.117188 2.910156 L 8.113281 2.964844 L 8.113281 3.039062 C 8.113281 3.054688 8.113281 3.074219 8.109375 3.105469 C 8.09375 3.113281 8.082031 3.117188 8.0625 3.117188 L 8.042969 3.117188 L 7.886719 3.121094 C 7.859375 3.121094 7.839844 3.121094 7.824219 3.117188 L 7.804688 3.117188 C 7.792969 3.117188 7.773438 3.121094 7.746094 3.128906 L 7.742188 3.265625 C 7.742188 3.28125 7.742188 3.300781 7.746094 3.328125 C 7.746094 3.433594 7.75 3.507812 7.75 3.546875 L 7.746094 3.953125 L 7.75 4.253906 L 7.75 4.492188 C 7.742188 4.664062 7.753906 4.765625 7.78125 4.800781 C 7.824219 4.855469 7.910156 4.890625 8.035156 4.90625 C 8.058594 4.910156 8.082031 4.917969 8.101562 4.925781 C 8.105469 4.972656 8.109375 5 8.109375 5.015625 C 8.109375 5.035156 8.105469 5.0625 8.101562 5.101562 L 7.953125 5.101562 C 7.9375 5.101562 7.855469 5.09375 7.707031 5.082031 L 7.59375 5.070312 C 7.484375 5.070312 7.398438 5.074219 7.339844 5.082031 C 7.308594 5.085938 7.195312 5.09375 7 5.097656 Z M 7 5.097656 "/>
<path style=" stroke:none;fill-rule:nonzero;fill:rgb(100%,100%,100%);fill-opacity:1;" d="M 8.289062 3.617188 C 8.324219 3.460938 8.355469 3.355469 8.386719 3.304688 C 8.464844 3.152344 8.546875 3.03125 8.636719 2.945312 C 8.722656 2.863281 8.804688 2.804688 8.875 2.777344 C 8.96875 2.742188 9.042969 2.722656 9.097656 2.722656 C 9.230469 2.722656 9.335938 2.734375 9.417969 2.761719 C 9.496094 2.789062 9.566406 2.828125 9.621094 2.878906 C 9.699219 2.949219 9.761719 3.023438 9.804688 3.101562 C 9.855469 3.175781 9.894531 3.261719 9.921875 3.363281 C 9.953125 3.460938 9.96875 3.582031 9.972656 3.726562 L 9.738281 3.71875 C 9.675781 3.71875 9.535156 3.710938 9.316406 3.695312 C 9.238281 3.6875 9.179688 3.683594 9.152344 3.683594 C 9.140625 3.683594 9.066406 3.6875 8.925781 3.6875 L 8.746094 3.6875 C 8.742188 3.714844 8.742188 3.734375 8.742188 3.753906 C 8.742188 3.851562 8.75 3.957031 8.769531 4.066406 C 8.785156 4.171875 8.8125 4.269531 8.851562 4.351562 C 8.886719 4.433594 8.929688 4.507812 8.984375 4.566406 C 9.039062 4.625 9.09375 4.667969 9.152344 4.695312 L 9.269531 4.746094 C 9.378906 4.746094 9.453125 4.742188 9.488281 4.730469 C 9.554688 4.714844 9.613281 4.691406 9.664062 4.664062 C 9.714844 4.632812 9.777344 4.585938 9.851562 4.515625 C 9.898438 4.5625 9.941406 4.605469 9.976562 4.648438 C 9.851562 4.828125 9.726562 4.957031 9.59375 5.039062 C 9.460938 5.117188 9.3125 5.160156 9.152344 5.160156 C 9.042969 5.160156 8.953125 5.144531 8.882812 5.121094 C 8.789062 5.085938 8.703125 5.035156 8.628906 4.96875 C 8.550781 4.898438 8.488281 4.8125 8.433594 4.710938 C 8.378906 4.605469 8.339844 4.503906 8.3125 4.394531 C 8.277344 4.253906 8.261719 4.140625 8.261719 4.054688 C 8.261719 3.894531 8.269531 3.746094 8.289062 3.617188 Z M 9.503906 3.5 C 9.503906 3.394531 9.488281 3.292969 9.457031 3.199219 C 9.429688 3.105469 9.382812 3.03125 9.320312 2.976562 C 9.261719 2.925781 9.199219 2.898438 9.136719 2.898438 C 9.042969 2.898438 8.957031 2.953125 8.882812 3.0625 C 8.808594 3.171875 8.765625 3.320312 8.757812 3.507812 L 9.234375 3.511719 C 9.261719 3.511719 9.304688 3.507812 9.363281 3.503906 C 9.402344 3.496094 9.429688 3.492188 9.449219 3.492188 C 9.460938 3.492188 9.480469 3.496094 9.503906 3.5 Z M 9.503906 3.5 "/>
<path style=" stroke:none;fill-rule:nonzero;fill:rgb(100%,100%,100%);fill-opacity:0.4;" d="M 3.460938 9.710938 L 3.460938 9.507812 C 3.488281 9.5 3.535156 9.484375 3.597656 9.464844 C 3.6875 9.433594 3.757812 9.402344 3.800781 9.371094 C 3.828125 9.3125 3.839844 9.234375 3.839844 9.132812 L 3.835938 8.804688 L 3.839844 8.167969 L 3.839844 8.015625 C 3.847656 7.648438 3.855469 7.457031 3.855469 7.449219 L 3.847656 7.078125 L 3.855469 6.925781 L 3.847656 6.605469 L 3.84375 6.488281 C 3.839844 6.46875 3.835938 6.441406 3.828125 6.398438 C 3.769531 6.363281 3.679688 6.339844 3.550781 6.332031 C 3.519531 6.332031 3.496094 6.328125 3.476562 6.324219 L 3.472656 6.078125 L 4.070312 6.113281 C 4.140625 6.117188 4.1875 6.117188 4.207031 6.117188 C 4.289062 6.117188 4.421875 6.109375 4.601562 6.097656 C 4.703125 6.085938 4.765625 6.082031 4.792969 6.078125 C 4.796875 6.113281 4.796875 6.144531 4.796875 6.167969 C 4.796875 6.199219 4.792969 6.238281 4.792969 6.289062 C 4.738281 6.316406 4.671875 6.34375 4.601562 6.363281 C 4.53125 6.386719 4.472656 6.410156 4.425781 6.4375 C 4.417969 6.484375 4.414062 6.554688 4.414062 6.644531 C 4.414062 6.726562 4.414062 6.789062 4.417969 6.839844 C 4.414062 7.152344 4.414062 7.394531 4.414062 7.566406 L 4.414062 8.300781 L 4.40625 8.675781 L 4.414062 9.230469 L 4.410156 9.335938 C 4.410156 9.351562 4.410156 9.371094 4.417969 9.402344 C 4.503906 9.425781 4.582031 9.441406 4.652344 9.453125 C 4.664062 9.453125 4.703125 9.460938 4.777344 9.472656 C 4.78125 9.527344 4.785156 9.574219 4.785156 9.613281 C 4.785156 9.632812 4.785156 9.664062 4.785156 9.707031 C 4.765625 9.707031 4.753906 9.707031 4.742188 9.710938 C 4.699219 9.714844 4.671875 9.714844 4.664062 9.714844 C 4.65625 9.714844 4.636719 9.714844 4.609375 9.707031 C 4.589844 9.703125 4.496094 9.691406 4.332031 9.667969 L 3.960938 9.664062 C 3.886719 9.664062 3.78125 9.671875 3.640625 9.691406 C 3.546875 9.703125 3.488281 9.707031 3.460938 9.710938 Z M 3.460938 9.710938 "/>
<path style=" stroke:none;fill-rule:nonzero;fill:rgb(100%,100%,100%);fill-opacity:0.4;" d="M 5 9.566406 C 5.035156 9.546875 5.070312 9.53125 5.101562 9.523438 C 5.179688 9.507812 5.222656 9.492188 5.234375 9.484375 C 5.257812 9.464844 5.269531 9.445312 5.277344 9.421875 C 5.285156 9.382812 5.289062 9.300781 5.289062 9.175781 L 5.289062 8.933594 L 5.292969 8.734375 L 5.285156 8.441406 L 5.285156 8.265625 C 5.285156 8.152344 5.277344 8.054688 5.261719 7.976562 C 5.257812 7.953125 5.242188 7.925781 5.210938 7.894531 C 5.171875 7.859375 5.105469 7.824219 5.011719 7.789062 L 5.011719 7.652344 C 5.03125 7.648438 5.046875 7.640625 5.058594 7.636719 C 5.074219 7.636719 5.128906 7.617188 5.230469 7.582031 C 5.304688 7.546875 5.355469 7.519531 5.375 7.503906 C 5.382812 7.5 5.394531 7.492188 5.410156 7.480469 C 5.425781 7.460938 5.445312 7.441406 5.46875 7.425781 C 5.507812 7.386719 5.558594 7.320312 5.617188 7.21875 L 5.730469 7.210938 L 5.722656 7.523438 C 5.722656 7.554688 5.722656 7.582031 5.722656 7.601562 C 5.722656 7.617188 5.722656 7.660156 5.722656 7.730469 C 5.839844 7.59375 5.945312 7.5 6.039062 7.449219 C 6.164062 7.382812 6.28125 7.347656 6.394531 7.347656 C 6.523438 7.347656 6.640625 7.390625 6.738281 7.476562 C 6.835938 7.5625 6.902344 7.664062 6.933594 7.777344 C 6.960938 7.890625 6.980469 8.117188 6.980469 8.464844 L 6.96875 9.371094 C 6.96875 9.414062 6.976562 9.449219 6.988281 9.476562 C 7 9.492188 7.039062 9.503906 7.101562 9.519531 L 7.207031 9.542969 C 7.21875 9.570312 7.222656 9.597656 7.222656 9.632812 C 7.222656 9.652344 7.222656 9.683594 7.222656 9.726562 L 6.8125 9.683594 L 6.691406 9.691406 L 6.59375 9.691406 L 6.320312 9.71875 L 6.246094 9.71875 C 6.246094 9.695312 6.246094 9.675781 6.246094 9.664062 C 6.246094 9.628906 6.246094 9.59375 6.25 9.554688 C 6.269531 9.546875 6.316406 9.539062 6.394531 9.527344 C 6.417969 9.523438 6.4375 9.515625 6.464844 9.507812 C 6.492188 9.492188 6.507812 9.476562 6.511719 9.464844 C 6.523438 9.433594 6.527344 9.371094 6.527344 9.28125 C 6.527344 9.125 6.527344 9.003906 6.523438 8.921875 L 6.527344 8.597656 C 6.527344 8.207031 6.511719 7.960938 6.472656 7.863281 C 6.421875 7.726562 6.339844 7.65625 6.234375 7.65625 C 6.15625 7.65625 6.074219 7.683594 5.992188 7.734375 C 5.910156 7.789062 5.820312 7.867188 5.730469 7.976562 L 5.730469 8.386719 L 5.738281 8.832031 L 5.734375 8.902344 C 5.734375 9.207031 5.742188 9.375 5.761719 9.417969 C 5.78125 9.457031 5.847656 9.496094 5.96875 9.542969 C 5.972656 9.574219 5.976562 9.597656 5.976562 9.613281 C 5.976562 9.636719 5.96875 9.671875 5.960938 9.714844 C 5.917969 9.71875 5.878906 9.71875 5.851562 9.71875 C 5.824219 9.71875 5.777344 9.714844 5.714844 9.703125 L 5.488281 9.695312 C 5.378906 9.695312 5.21875 9.703125 5.007812 9.714844 C 5 9.699219 5 9.679688 5 9.660156 C 5 9.644531 5 9.613281 5 9.566406 Z M 5 9.566406 "/>
<path style=" stroke:none;fill-rule:nonzero;fill:rgb(100%,100%,100%);fill-opacity:1;" d="M 3.269531 9.457031 L 3.269531 9.257812 C 3.300781 9.246094 3.34375 9.230469 3.410156 9.210938 C 3.5 9.179688 3.566406 9.148438 3.613281 9.117188 C 3.636719 9.0625 3.648438 8.980469 3.648438 8.878906 L 3.648438 8.550781 L 3.652344 7.914062 L 3.648438 7.765625 C 3.660156 7.394531 3.664062 7.207031 3.664062 7.195312 L 3.660156 6.824219 L 3.667969 6.671875 L 3.65625 6.355469 L 3.652344 6.234375 C 3.652344 6.21875 3.648438 6.1875 3.640625 6.144531 C 3.582031 6.109375 3.488281 6.089844 3.363281 6.078125 C 3.332031 6.078125 3.304688 6.074219 3.289062 6.070312 L 3.28125 5.824219 L 3.878906 5.859375 C 3.953125 5.863281 4 5.867188 4.019531 5.867188 C 4.101562 5.867188 4.230469 5.859375 4.414062 5.84375 C 4.515625 5.832031 4.578125 5.828125 4.605469 5.824219 C 4.605469 5.863281 4.605469 5.890625 4.605469 5.914062 C 4.605469 5.945312 4.605469 5.988281 4.601562 6.039062 C 4.546875 6.0625 4.484375 6.089844 4.410156 6.113281 C 4.339844 6.136719 4.28125 6.160156 4.234375 6.183594 C 4.226562 6.230469 4.222656 6.300781 4.222656 6.394531 C 4.222656 6.472656 4.226562 6.539062 4.226562 6.585938 C 4.226562 6.902344 4.222656 7.144531 4.222656 7.3125 L 4.226562 8.046875 L 4.21875 8.421875 L 4.222656 8.980469 L 4.21875 9.082031 C 4.21875 9.097656 4.222656 9.121094 4.226562 9.148438 C 4.3125 9.175781 4.390625 9.191406 4.460938 9.199219 C 4.472656 9.199219 4.515625 9.207031 4.589844 9.222656 C 4.59375 9.277344 4.597656 9.324219 4.597656 9.363281 C 4.597656 9.382812 4.59375 9.414062 4.59375 9.453125 C 4.578125 9.453125 4.5625 9.457031 4.554688 9.457031 C 4.507812 9.460938 4.480469 9.464844 4.476562 9.464844 C 4.464844 9.464844 4.449219 9.460938 4.421875 9.453125 C 4.402344 9.453125 4.308594 9.4375 4.144531 9.417969 L 3.773438 9.410156 C 3.699219 9.410156 3.589844 9.421875 3.453125 9.4375 C 3.359375 9.449219 3.300781 9.457031 3.269531 9.457031 Z M 3.269531 9.457031 "/>
<path style=" stroke:none;fill-rule:nonzero;fill:rgb(100%,100%,100%);fill-opacity:1;" d="M 4.8125 9.316406 C 4.847656 9.292969 4.882812 9.277344 4.914062 9.269531 C 4.988281 9.253906 5.035156 9.242188 5.046875 9.230469 C 5.066406 9.210938 5.082031 9.191406 5.085938 9.167969 C 5.097656 9.132812 5.101562 9.050781 5.101562 8.925781 L 5.101562 8.480469 L 5.097656 8.191406 L 5.097656 8.015625 C 5.097656 7.898438 5.089844 7.800781 5.074219 7.726562 C 5.070312 7.699219 5.050781 7.671875 5.023438 7.644531 C 4.984375 7.605469 4.917969 7.570312 4.824219 7.535156 L 4.824219 7.402344 C 4.839844 7.394531 4.855469 7.390625 4.871094 7.386719 C 4.886719 7.382812 4.941406 7.363281 5.039062 7.332031 C 5.117188 7.292969 5.164062 7.269531 5.1875 7.253906 C 5.195312 7.246094 5.207031 7.238281 5.222656 7.226562 C 5.238281 7.210938 5.257812 7.191406 5.277344 7.171875 C 5.320312 7.132812 5.371094 7.066406 5.425781 6.96875 L 5.539062 6.957031 L 5.535156 7.273438 C 5.53125 7.304688 5.53125 7.328125 5.53125 7.347656 C 5.53125 7.363281 5.53125 7.40625 5.535156 7.476562 C 5.652344 7.34375 5.757812 7.25 5.851562 7.195312 C 5.976562 7.128906 6.09375 7.09375 6.203125 7.09375 C 6.335938 7.09375 6.449219 7.136719 6.550781 7.222656 C 6.648438 7.308594 6.710938 7.410156 6.742188 7.523438 C 6.773438 7.636719 6.789062 7.867188 6.789062 8.210938 L 6.78125 9.117188 C 6.78125 9.160156 6.785156 9.195312 6.796875 9.222656 C 6.8125 9.238281 6.851562 9.253906 6.914062 9.265625 L 7.015625 9.289062 C 7.027344 9.316406 7.035156 9.34375 7.035156 9.378906 C 7.035156 9.402344 7.035156 9.433594 7.03125 9.472656 L 6.621094 9.433594 L 6.5 9.4375 L 6.402344 9.4375 L 6.128906 9.464844 L 6.058594 9.464844 C 6.054688 9.441406 6.054688 9.425781 6.054688 9.410156 C 6.054688 9.378906 6.058594 9.339844 6.058594 9.300781 C 6.078125 9.296875 6.128906 9.289062 6.207031 9.273438 C 6.226562 9.269531 6.25 9.265625 6.277344 9.253906 C 6.304688 9.242188 6.320312 9.226562 6.324219 9.210938 C 6.332031 9.179688 6.339844 9.117188 6.339844 9.027344 C 6.339844 8.871094 6.339844 8.753906 6.335938 8.667969 L 6.335938 8.347656 C 6.339844 7.953125 6.320312 7.710938 6.285156 7.613281 C 6.230469 7.472656 6.152344 7.402344 6.046875 7.402344 C 5.964844 7.402344 5.886719 7.429688 5.800781 7.484375 C 5.71875 7.535156 5.632812 7.617188 5.542969 7.722656 L 5.539062 7.773438 L 5.542969 7.949219 L 5.539062 8.136719 L 5.550781 8.578125 L 5.546875 8.652344 C 5.546875 8.953125 5.554688 9.125 5.574219 9.164062 C 5.589844 9.203125 5.660156 9.246094 5.777344 9.289062 C 5.785156 9.324219 5.785156 9.347656 5.785156 9.363281 C 5.785156 9.382812 5.78125 9.417969 5.769531 9.464844 C 5.726562 9.464844 5.691406 9.464844 5.664062 9.464844 C 5.632812 9.464844 5.585938 9.460938 5.523438 9.449219 L 5.300781 9.445312 C 5.191406 9.445312 5.027344 9.449219 4.816406 9.464844 C 4.8125 9.445312 4.808594 9.425781 4.808594 9.40625 C 4.808594 9.390625 4.808594 9.359375 4.8125 9.316406 Z M 4.8125 9.316406 "/>
<path style=" stroke:none;fill-rule:nonzero;fill:rgb(100%,100%,100%);fill-opacity:0.4;" d="M 5.859375 10.523438 C 5.875 10.578125 5.914062 10.738281 5.96875 11 C 5.996094 11.117188 6.007812 11.242188 6.007812 11.378906 L 5.820312 11.378906 C 5.683594 11.125 5.546875 10.945312 5.402344 10.835938 C 5.261719 10.722656 5.101562 10.667969 4.925781 10.667969 C 4.710938 10.667969 4.539062 10.78125 4.40625 11.003906 C 4.226562 11.308594 4.136719 11.734375 4.136719 12.28125 C 4.136719 12.59375 4.152344 12.820312 4.183594 12.953125 C 4.234375 13.171875 4.296875 13.347656 4.371094 13.484375 C 4.429688 13.589844 4.507812 13.671875 4.601562 13.734375 C 4.722656 13.816406 4.855469 13.859375 4.996094 13.859375 C 5.148438 13.859375 5.296875 13.796875 5.4375 13.667969 C 5.582031 13.542969 5.71875 13.351562 5.851562 13.097656 C 5.902344 13.085938 5.96875 13.078125 6.050781 13.074219 C 6.046875 13.144531 6.039062 13.21875 6.027344 13.296875 C 6.019531 13.328125 6.003906 13.445312 5.976562 13.652344 L 5.960938 13.734375 L 5.929688 13.863281 C 5.84375 13.953125 5.726562 14.015625 5.570312 14.0625 C 5.417969 14.105469 5.226562 14.125 5.003906 14.125 C 4.832031 14.125 4.667969 14.105469 4.515625 14.0625 C 4.363281 14.019531 4.234375 13.953125 4.125 13.859375 C 3.964844 13.726562 3.839844 13.582031 3.75 13.425781 C 3.660156 13.269531 3.59375 13.097656 3.550781 12.914062 C 3.503906 12.730469 3.484375 12.523438 3.484375 12.296875 C 3.484375 11.742188 3.621094 11.285156 3.894531 10.925781 C 4.167969 10.5625 4.519531 10.382812 4.941406 10.382812 C 5.117188 10.382812 5.277344 10.394531 5.429688 10.417969 C 5.582031 10.441406 5.726562 10.476562 5.859375 10.523438 Z M 5.859375 10.523438 "/>
<path style=" stroke:none;fill-rule:nonzero;fill:rgb(100%,100%,100%);fill-opacity:0.4;" d="M 7.929688 12.042969 C 8.019531 12.15625 8.085938 12.289062 8.128906 12.441406 C 8.171875 12.589844 8.195312 12.730469 8.195312 12.863281 C 8.195312 13.109375 8.167969 13.3125 8.109375 13.464844 C 8.023438 13.695312 7.90625 13.863281 7.757812 13.972656 C 7.613281 14.082031 7.445312 14.136719 7.25 14.136719 C 7.03125 14.136719 6.847656 14.074219 6.695312 13.945312 C 6.546875 13.8125 6.4375 13.664062 6.371094 13.5 C 6.308594 13.335938 6.277344 13.128906 6.277344 12.882812 C 6.277344 12.757812 6.289062 12.632812 6.320312 12.507812 C 6.351562 12.382812 6.394531 12.273438 6.445312 12.183594 C 6.5 12.089844 6.5625 12.011719 6.625 11.945312 C 6.71875 11.855469 6.8125 11.792969 6.90625 11.757812 C 7 11.71875 7.113281 11.699219 7.246094 11.699219 C 7.539062 11.699219 7.765625 11.8125 7.929688 12.042969 Z M 6.785156 13.007812 C 6.796875 13.238281 6.804688 13.371094 6.8125 13.402344 C 6.832031 13.527344 6.859375 13.636719 6.898438 13.726562 C 6.925781 13.785156 6.96875 13.835938 7.03125 13.878906 C 7.089844 13.925781 7.164062 13.945312 7.25 13.945312 C 7.351562 13.945312 7.4375 13.902344 7.507812 13.816406 C 7.578125 13.730469 7.628906 13.59375 7.65625 13.410156 C 7.675781 13.289062 7.6875 13.089844 7.6875 12.816406 C 7.6875 12.476562 7.644531 12.238281 7.558594 12.097656 C 7.476562 11.960938 7.367188 11.886719 7.230469 11.886719 C 7.125 11.886719 7.035156 11.929688 6.964844 12.007812 C 6.894531 12.089844 6.84375 12.207031 6.816406 12.363281 C 6.800781 12.464844 6.789062 12.675781 6.785156 13.007812 Z M 6.785156 13.007812 "/>
<path style=" stroke:none;fill-rule:nonzero;fill:rgb(100%,100%,100%);fill-opacity:1;" d="M 5.667969 10.269531 C 5.6875 10.324219 5.722656 10.484375 5.78125 10.746094 C 5.804688 10.867188 5.820312 10.992188 5.820312 11.125 L 5.628906 11.125 C 5.496094 10.875 5.355469 10.691406 5.214844 10.582031 C 5.074219 10.472656 4.914062 10.417969 4.738281 10.417969 C 4.523438 10.417969 4.347656 10.527344 4.214844 10.75 C 4.035156 11.058594 3.945312 11.480469 3.945312 12.027344 C 3.945312 12.34375 3.960938 12.566406 3.992188 12.699219 C 4.042969 12.917969 4.105469 13.097656 4.183594 13.234375 C 4.242188 13.335938 4.316406 13.421875 4.414062 13.480469 C 4.535156 13.566406 4.667969 13.605469 4.804688 13.605469 C 4.960938 13.605469 5.105469 13.542969 5.25 13.417969 C 5.394531 13.289062 5.53125 13.097656 5.660156 12.84375 C 5.710938 12.832031 5.78125 12.824219 5.863281 12.824219 C 5.855469 12.894531 5.847656 12.96875 5.835938 13.042969 C 5.832031 13.074219 5.816406 13.191406 5.789062 13.398438 L 5.769531 13.480469 L 5.738281 13.613281 C 5.65625 13.699219 5.535156 13.765625 5.382812 13.808594 C 5.226562 13.851562 5.039062 13.875 4.816406 13.875 C 4.640625 13.875 4.480469 13.851562 4.328125 13.8125 C 4.175781 13.769531 4.046875 13.699219 3.9375 13.605469 C 3.777344 13.472656 3.652344 13.328125 3.5625 13.175781 C 3.472656 13.015625 3.402344 12.847656 3.359375 12.664062 C 3.316406 12.476562 3.292969 12.269531 3.292969 12.042969 C 3.292969 11.488281 3.429688 11.03125 3.703125 10.671875 C 3.980469 10.3125 4.328125 10.132812 4.753906 10.132812 C 4.925781 10.132812 5.089844 10.144531 5.242188 10.167969 C 5.394531 10.1875 5.535156 10.222656 5.667969 10.269531 Z M 5.667969 10.269531 "/>
<path style=" stroke:none;fill-rule:nonzero;fill:rgb(100%,100%,100%);fill-opacity:1;" d="M 7.738281 11.789062 C 7.828125 11.90625 7.894531 12.039062 7.941406 12.1875 C 7.984375 12.335938 8.007812 12.476562 8.007812 12.609375 C 8.007812 12.859375 7.976562 13.058594 7.917969 13.210938 C 7.832031 13.441406 7.714844 13.609375 7.570312 13.71875 C 7.421875 13.832031 7.253906 13.886719 7.0625 13.886719 C 6.84375 13.886719 6.660156 13.820312 6.507812 13.691406 C 6.355469 13.5625 6.25 13.414062 6.183594 13.246094 C 6.117188 13.082031 6.085938 12.875 6.085938 12.632812 C 6.085938 12.507812 6.101562 12.382812 6.132812 12.257812 C 6.160156 12.128906 6.203125 12.023438 6.257812 11.929688 C 6.3125 11.835938 6.371094 11.757812 6.4375 11.695312 C 6.53125 11.605469 6.621094 11.542969 6.714844 11.503906 C 6.808594 11.464844 6.925781 11.445312 7.058594 11.445312 C 7.351562 11.445312 7.578125 11.5625 7.738281 11.789062 Z M 6.597656 12.753906 C 6.609375 12.984375 6.617188 13.117188 6.621094 13.152344 C 6.640625 13.277344 6.671875 13.382812 6.710938 13.472656 C 6.734375 13.53125 6.78125 13.582031 6.839844 13.628906 C 6.902344 13.671875 6.976562 13.695312 7.0625 13.695312 C 7.160156 13.695312 7.246094 13.652344 7.316406 13.566406 C 7.386719 13.476562 7.4375 13.34375 7.46875 13.160156 C 7.488281 13.039062 7.496094 12.839844 7.496094 12.566406 C 7.496094 12.226562 7.457031 11.988281 7.371094 11.847656 C 7.289062 11.707031 7.179688 11.636719 7.042969 11.636719 C 6.933594 11.636719 6.84375 11.675781 6.773438 11.757812 C 6.703125 11.835938 6.65625 11.953125 6.628906 12.109375 C 6.609375 12.210938 6.597656 12.425781 6.597656 12.753906 Z M 6.597656 12.753906 "/>
</g>
</svg>
